<?xml version="1.0" encoding="utf-8"?>
<!-- Generator: Adobe Illustrator 22.1.0, SVG Export Plug-In . SVG Version: 6.00 Build 0)  -->
<svg version="1.1" id="Layer_1" xmlns="http://www.w3.org/2000/svg" xmlns:xlink="http://www.w3.org/1999/xlink" x="0px" y="0px"
	 viewBox="0 0 1600 400" style="enable-background:new 0 0 1600 400;" xml:space="preserve">
<style type="text/css">
	.st0{fill:#BA45BA;}
	.st1{fill:#FFFFFF;}
	.st2{font-family:'Helvetica-Bold';}
	.st3{font-size:36px;}
	.st4{letter-spacing:-1;}
</style>
<g>
	<rect x="0.5" y="0.5" class="st0" width="1599" height="399"/>
	<path d="M1599,1v398H1V1H1599 M1600,0H0v400h1600V0L1600,0z"/>
</g>
<g>
	<path class="st1" d="M44.9,276.1c0.7-11.3,1.4-28.2,1.4-43v-201h29.9v104.5h0.7C87.5,118,106.8,106,133.6,106
		c41.2,0,70.4,34.4,70.1,84.9c0,59.4-37.5,89-74.6,89c-24.1,0-43.3-9.3-55.7-31.3h-1L71,276.1H44.9z M76.2,209.4
		c0,3.8,0.7,7.6,1.4,11c5.8,21,23.4,35.4,45.4,35.4c31.6,0,50.5-25.8,50.5-63.9c0-33.3-17.2-61.9-49.5-61.9
		c-20.6,0-39.9,14.1-46,37.1c-0.7,3.4-1.7,7.6-1.7,12.4V209.4z"/>
	<path class="st1" d="M316.4,276.1l-2.4-21h-1c-9.3,13.1-27.1,24.7-50.9,24.7c-33.7,0-50.9-23.7-50.9-47.8
		c0-40.2,35.7-62.2,100-61.9v-3.4c0-13.7-3.8-38.5-37.8-38.5c-15.5,0-31.6,4.8-43.3,12.4l-6.9-19.9c13.7-8.9,33.7-14.8,54.6-14.8
		c50.9,0,63.2,34.7,63.2,68v62.2c0,14.4,0.7,28.5,2.7,39.9H316.4z M311.9,191.2c-33-0.7-70.4,5.2-70.4,37.5
		c0,19.6,13.1,28.9,28.5,28.9c21.6,0,35.4-13.7,40.2-27.8c1-3.1,1.7-6.5,1.7-9.6V191.2z"/>
	<path class="st1" d="M372.4,154.8c0-17.2-0.3-31.3-1.4-45h26.5l1.4,26.8h1c9.3-15.8,24.7-30.6,52.2-30.6
		c22.7,0,39.9,13.7,47.1,33.3h0.7c5.2-9.3,11.7-16.5,18.6-21.6c10-7.6,21-11.7,36.8-11.7c22,0,54.6,14.4,54.6,72.2v97.9h-29.6v-94.2
		c0-32-11.7-51.2-36.1-51.2c-17.2,0-30.6,12.7-35.7,27.5c-1.4,4.1-2.4,9.6-2.4,15.1v102.7h-29.6v-99.7c0-26.5-11.7-45.7-34.7-45.7
		c-18.9,0-32.6,15.1-37.5,30.2c-1.7,4.5-2.4,9.6-2.4,14.8v100.3h-29.6V154.8z"/>
	<path class="st1" d="M733.5,276.1l-2.4-21h-1c-9.3,13.1-27.1,24.7-50.9,24.7c-33.7,0-50.9-23.7-50.9-47.8
		c0-40.2,35.7-62.2,100-61.9v-3.4c0-13.7-3.8-38.5-37.8-38.5c-15.5,0-31.6,4.8-43.3,12.4l-6.9-19.9c13.7-8.9,33.7-14.8,54.6-14.8
		c50.9,0,63.2,34.7,63.2,68v62.2c0,14.4,0.7,28.5,2.7,39.9H733.5z M729.1,191.2c-33-0.7-70.4,5.2-70.4,37.5
		c0,19.6,13.1,28.9,28.5,28.9c21.6,0,35.4-13.7,40.2-27.8c1-3.1,1.7-6.5,1.7-9.6V191.2z"/>
	<path class="st1" d="M770.6,258.6l75.3-97.9c7.2-8.9,14.1-16.8,21.6-25.8v-0.7h-90v-24.4h126.8l-0.3,18.9l-74.2,96.6
		c-6.9,9.3-13.7,17.5-21.3,26.1v0.7h97.2v24.1h-135V258.6z"/>
	<path class="st1" d="M1067.2,191.6c0,61.5-42.6,88.3-82.8,88.3c-45,0-79.7-33-79.7-85.6c0-55.7,36.4-88.3,82.5-88.3
		C1034.9,106,1067.2,140.7,1067.2,191.6z M935.2,193.3c0,36.4,21,63.9,50.5,63.9c28.9,0,50.5-27.1,50.5-64.6
		c0-28.2-14.1-63.9-49.8-63.9C950.7,128.7,935.2,161.7,935.2,193.3z"/>
	<path class="st1" d="M1087.8,154.8c0-17.2-0.3-31.3-1.4-45h26.8l1.7,27.5h0.7c8.2-15.8,27.5-31.3,55-31.3c23,0,58.8,13.7,58.8,70.8
		v99.3h-30.2v-95.9c0-26.8-10-49.1-38.5-49.1c-19.9,0-35.4,14.1-40.5,30.9c-1.4,3.8-2.1,8.9-2.1,14.1v100h-30.2V154.8z"/>
</g>
<text transform="matrix(1 0 0 1 44.2383 331.1592)" class="st1 st2 st3 st4">Comand Line Retail App</text>
</svg>
