<?xml version="1.0" encoding="utf-8"?>
<!-- Generator: Adobe Illustrator 22.1.0, SVG Export Plug-In . SVG Version: 6.00 Build 0)  -->
<svg version="1.1" id="Layer_1" xmlns="http://www.w3.org/2000/svg" xmlns:xlink="http://www.w3.org/1999/xlink" x="0px" y="0px"
	 viewBox="0 0 50 50" style="enable-background:new 0 0 50 50;" xml:space="preserve">
<style type="text/css">
	.st0{fill:#2F3542;}
</style>
<path class="st0" d="M16.1,13c-5.2,0-9.4,4.1-9.5,9.3l-1.5,2c-0.2,0.4-0.2,0.8,0.2,1.1c0.4,0.3,0.8,0.5,1.3,0.7v3.2
	C5.6,30,5,31,5,32.1s0.6,2.2,1.6,2.7v4.4c0,2.2,1.8,4,4,4h28.7c2.2,0,4-1.8,4-4v-4.4c1-0.6,1.6-1.6,1.6-2.7s-0.6-2.2-1.6-2.7v-3.2
	c0.5-0.2,1-0.5,1.4-0.8c0.4-0.3,0.4-0.8,0.2-1.1c0,0,0,0,0,0l-1.6-2c-0.2-5.2-4.4-9.3-9.5-9.3H16.1z M16.1,14.6h17.6
	c4.2,0,7.5,3.1,7.9,7.2H8.2C8.6,17.7,12,14.6,16.1,14.6z M18.9,15.4c-0.7,0-1.2,0.5-1.2,1.2s0.5,1.2,1.2,1.2c0.7,0,1.2-0.5,1.2-1.2
	S19.6,15.4,18.9,15.4z M14.9,16.2c-0.7,0-1.2,0.5-1.2,1.2s0.5,1.2,1.2,1.2c0.7,0,1.2-0.5,1.2-1.2S15.6,16.2,14.9,16.2z M17.3,18.6
	c-0.7,0-1.2,0.5-1.2,1.2s0.5,1.2,1.2,1.2c0.7,0,1.2-0.5,1.2-1.2S18,18.6,17.3,18.6z M7.8,23.4h34.3l0.9,1.2
	c-1.5,0.8-3.3,0.7-4.7-0.4c-0.3-0.2-0.6-0.2-0.9,0l-1.3,0.7c0,0,0,0,0,0c-1.5,0.9-3.3,0.9-4.7,0c0,0,0,0,0,0l-1.3-0.7
	c-0.2-0.1-0.5-0.1-0.7,0l-2.4,1.2h0c-1.3,0.6-2.8,0.6-4.1,0h0l-2.4-1.2c-0.2-0.1-0.5-0.1-0.7,0l-1.3,0.7c-1.5,0.9-3.3,0.9-4.7,0
	c0,0,0,0,0,0l-1.3-0.7c-0.3-0.2-0.6-0.1-0.9,0c-1.4,1.1-3.2,1.2-4.7,0.4L7.8,23.4z M12.1,25.7l0.9,0.5l0,0c1.9,1.2,4.3,1.2,6.3,0
	l0.9-0.5l2,1c0,0,0,0,0,0c1.7,0.8,3.7,0.8,5.5,0c0,0,0,0,0,0l2-1l0.9,0.5h0c1.9,1.2,4.3,1.2,6.3,0l0.9-0.5c1.2,0.7,2.5,1,3.8,0.9V29
	H8.2v-2.4C9.5,26.7,10.9,26.4,12.1,25.7z M8.2,30.6h33.5c0.9,0,1.6,0.6,1.6,1.6c0,0.9-0.6,1.6-1.6,1.6H8.2c-0.9,0-1.6-0.6-1.6-1.6
	C6.6,31.2,7.2,30.6,8.2,30.6z M8.2,35.3h33.5v4c0,1.3-1.1,2.4-2.4,2.4H10.6c-1.3,0-2.4-1.1-2.4-2.4V35.3z"/>
</svg>
