<?xml version="1.0" encoding="utf-8"?>
<!-- Generator: Adobe Illustrator 22.1.0, SVG Export Plug-In . SVG Version: 6.00 Build 0)  -->
<svg version="1.1" id="Layer_1" xmlns="http://www.w3.org/2000/svg" xmlns:xlink="http://www.w3.org/1999/xlink" x="0px" y="0px"
	 viewBox="0 0 512 512" style="enable-background:new 0 0 512 512;" xml:space="preserve">
<style type="text/css">
	.st0{display:none;fill:none;}
	.st1{fill:#735542;}
	.st2{fill:#D46A56;}
	.st3{fill:#C5C158;}
	.st4{fill:#E6A52E;}
</style>
<g id="Guides_For_Artboard">
</g>
<g id="Artwork">
</g>
<g id="Layer_3">
	<g>
		<g>
			<rect x="310" y="369.4" class="st0" width="0" height="9.5"/>
			<path class="st1" d="M386,374.2h-34.6V394h-0.1c-0.8,9.3-8.7,16.7-18.2,16.7c-9.6,0-17.4-7.3-18.2-16.7h-0.1v-19.9h-9.5v46.1h0
				c-0.4,5.1-4.7,9.1-9.9,9.1c-5.2,0-9.5-4-9.9-9.1h0v-46.1H124.2c-19.8,0-35.9,16.1-35.9,35.9c0,19.8,16.1,35.9,35.9,35.9H386
				c19.8,0,35.9-16.1,35.9-35.9C422,390.3,405.8,374.2,386,374.2z"/>
			<path class="st1" d="M387.6,285.3c0-0.1,0-0.3,0-0.4c-0.1-35.4-14.1-64.4-40.4-83.9c-23.8-17.7-56.8-27-95.3-27
				s-71.5,9.3-95.3,27c-26.4,19.6-40.4,48.7-40.4,84.3c0,1.3,0.5,2.6,1.2,3.5h269C387.2,287.9,387.6,286.6,387.6,285.3z"/>
			<path class="st2" d="M394.1,347.9c0.5,0,1,0.1,1.5,0.2c7.9-4.3,13.3-12.7,13.3-22.3s-5.4-18-13.3-22.3c-0.5,0.1-1,0.2-1.5,0.2
				H109.8c-0.5,0-1-0.1-1.5-0.2c-7.9,4.3-13.3,12.7-13.3,22.3s5.4,18,13.3,22.3c0.5-0.1,1-0.2,1.5-0.2H394.1z"/>
			<path class="st3" d="M394.1,303.6c0.5,0,1-0.1,1.5-0.2c3.4-0.7,5.9-3.7,5.9-7.2c0-4.1-3.3-7.4-7.4-7.4h-7.6h-269h-7.6
				c-4.1,0-7.4,3.3-7.4,7.4c0,3.6,2.5,6.5,5.9,7.2c0.5,0.1,1,0.2,1.5,0.2H394.1z"/>
			<path class="st3" d="M394.1,359.4c1.7,0,3.3,0.6,4.6,1.6c1.7-1.4,2.8-3.4,2.8-5.8c0-3.6-2.5-6.5-5.9-7.2c-0.5-0.1-1-0.2-1.5-0.2
				H109.8c-0.5,0-1,0.1-1.5,0.2c-3.4,0.7-5.9,3.7-5.9,7.2c0,2.3,1.1,4.4,2.8,5.8c1.3-1,2.9-1.6,4.6-1.6H394.1z"/>
			<path class="st4" d="M305.3,373.5v0.6h9.5v-10.3h36.6v10.3H394c4.1,0,7.4-3.3,7.4-7.4c0-2.3-1.1-4.4-2.8-5.8
				c-1.3-1-2.9-1.6-4.6-1.6H109.8c-1.7,0-3.3,0.6-4.6,1.6c-1.7,1.4-2.8,3.4-2.8,5.8c0,4.1,3.3,7.4,7.4,7.4h175.5v-0.6H305.3z"/>
			<path class="st4" d="M314.8,363.9v10.3l0,0V394h0.1c0.8,9.3,8.6,16.7,18.2,16.7c9.6,0,17.4-7.3,18.2-16.7h0.1v-19.9l0,0v-10.3
				H314.8z"/>
			<path class="st4" d="M285.4,420.2c0.4,5.1,4.7,9.1,9.9,9.1s9.5-4,9.9-9.1h0v-46.1l0,0v-0.6h-20v0.6l0,0L285.4,420.2L285.4,420.2z
				"/>
		</g>
	</g>
</g>
</svg>
