<?xml version="1.0" encoding="utf-8"?>
<!-- Generator: Adobe Illustrator 22.1.0, SVG Export Plug-In . SVG Version: 6.00 Build 0)  -->
<svg version="1.1" id="Layer_1" xmlns="http://www.w3.org/2000/svg" xmlns:xlink="http://www.w3.org/1999/xlink" x="0px" y="0px"
	 viewBox="0 0 250 250" style="enable-background:new 0 0 250 250;" xml:space="preserve">
<style type="text/css">
	.st0{fill:#353535;}
	.st1{fill:#FFFFFF;}
</style>
<path class="st0" d="M206,115c-0.4,2.4-2.2,3.5-4.2,4.5c-4.4,2.1-9.1,3.1-14,3.5c-2,0.2-3.5,2.1-2.7,4c1,2.5,2.3,5,3.5,7.5
	c2.7,5.5,5.6,10.9,8,16.4c2.8,6.4,4.2,13.3,4.9,20.2c0.4,4.1,1,8.1,1.3,12.1c0.1,1.6,0,3.3-0.2,4.9c-0.1,1.2-1,2-2.1,2.4
	c-3.3,1.1-6.6,2.2-10,3.2c-1.1,0.3-2.2,0.6-3.3,1c-1.1,0.4-1.8,1.2-1.8,2.4c-0.3,4.9-0.5,9.8-0.7,14.6c0,1.2,0.3,2.3,1,3.4
	c1.2,1.8,1.7,4,1.7,6.1c0,1.2-0.1,2.4-0.1,3.5c0,1-0.5,1.6-1.4,1.9c-0.8,0.2-1.5,0.5-2.3,0.6c-5.2,0.4-10.4,0.8-15.6,1
	c-2,0.1-4.1-0.5-6.2-0.8c-1.2-0.2-2-1-2.4-2.1c-0.3-0.6-0.6-0.7-1.2-0.8c-1.6-0.1-3.3,0-4.9-0.4c-1.1-0.3-2.2-0.9-3.2-1.7
	c-1.6-1.2-1.9-3.7-0.8-5.8c2-4,5.6-5.6,9.7-6.4c1.5-0.3,3-0.4,4.6-0.6c-0.9-2.7-1.8-5.4-2.8-8.1c-0.5-1.6-1.1-3.1-1.6-4.7
	c-0.2-0.7-0.7-0.6-1.2-0.6c-3.9-0.1-7.6-0.6-11.3-1.7c-1.8-0.6-3.7-1-5.6-1.4c-0.4-0.1-0.9-0.1-1.3,0c-3.7,1-7.4,2.2-11.1,3.2
	c-1,0.3-1.6,0.9-2.2,1.6c-2.3,3.2-3.3,7-4,10.8c-0.1,0.8-0.2,1.5-0.3,2.3c2,0.5,4,0.8,5.9,1.3c1.4,0.4,2.8,1.1,4.2,1.8
	c1.6,0.8,2.5,2.3,2.9,4.1c0.4,1.6-0.4,3.2-2.2,4.2c-2.2,1.3-4.7,2-7.3,2.2c-5.8,0.5-11.5,0.8-17.2-0.6c-2.6-0.6-5.2-0.7-7.8-0.8
	c-2-0.1-2.9-0.9-3.1-2.9c-0.1-1.3-0.1-2.7,0-4c0.2-2.4,1.8-3.6,3.8-4.5c0.3-0.1,0.6-0.2,0.9-0.3c-0.1-2-0.3-4-0.4-5.9
	c-0.2-2.6-0.4-5.2-0.6-7.9c0-0.3-0.3-0.7-0.6-0.7c-2-0.6-4-1.1-6.1-1.5c-4.9-1.2-9.4-3.2-13.4-6.1c-0.7-0.5-1.5-1.1-2.2-1.6
	c-1.8-1.4-2.7-3.2-2.2-5.5c1.4-6.6,3-13.1,4.3-19.7c0.6-3.2,0.8-6.4,1-9.6c0.2-2.1,0.2-4.2,0.1-6.2c0-0.4-0.4-1-0.8-1.2
	c-4.1-2.6-5.2-6.9-3.6-11.3c0.1-0.2,0.2-0.6,0.1-0.7c-1.6-2.7-1.4-5.6-1.3-8.6c0.2-4,0.4-7.9,0.5-11.9c0-0.4-0.2-0.8-0.3-1.2
	c-0.4,0.1-1,0.2-1.3,0.4c-1.8,1.3-3.5,2.7-5.3,3.9c-1.9,1.3-5.4,0.9-7.4-0.8c-4.3-3.6-8.1-7.5-10.8-12.4c-1.8-3.3-3.8-6.5-5.5-9.9
	c-1.8-3.5-2.7-7.4-2.4-11.3c0.3-4.3,0.5-8.6,1.3-12.8C47.4,61.6,50.9,55,57,50c2.3-1.9,4.6-3.7,7.4-4.9c0.5-0.2,1.2-0.7,1.3-1.2
	c0.7-2.4,2.3-4,4.3-5.3c3.1-2.2,6.7-3.4,10.4-3.9c10.3-1.5,20.5-0.7,30.4,2.4c4.2,1.3,8.1,3.2,11.6,6c0.3,0.2,0.6,0.4,0.9,0.6
	c0.8-1.6,1.5-3.1,2.2-4.6c1.5-3.2,3.2-6.2,5.6-8.8c3-3.3,6.7-5.5,10.9-6.8c3.1-1,6.2-1.7,9.5-1.6c0.1,0,0.3-0.1,0.4-0.1
	c1.1,0,2.3,0,3.4,0c0.4,0.1,0.7,0.2,1.1,0.2c3.7,0,7.3,0.2,10.9,1c4.4,1.1,8.5,2.7,10.9,6.9c0.2,0.4,0.7,0.6,1.1,0.8
	c1.3,0.3,2.6,0.6,3.8,0.9c2.9,0.6,5.8,1.3,7.8,3.8c0.7,0.8,1.3,1.6,1.9,2.4c4.2,5.4,6.1,11.8,8.1,18.2c2.3,7.3,2.8,15,3.6,22.6
	c0.4,3.6,0.4,7.3,0.6,11c0.1,2.2,0.4,4.5,0.6,6.7c0,2.4,0,4.9,0,7.3c0,2.8,0,5.5,0,8.3C206,112.7,206,113.9,206,115z"/>
<path class="st1" d="M147.7,189.4c0.6-0.9,1.2-1.6,1.7-2.4c0.7-1.1,0.9-2.4,0.4-3.7c-1.8-4.3-3.5-8.6-5.4-12.8
	c-1.7-3.8-3.6-7.5-5.2-11.3c-1-2.3-1.6-4.6-2.3-7c-1.2-4.2-2.4-8.5-3.6-12.7c-0.4-1.3-0.7-2.7-1.1-4c-0.2-0.7-0.1-1.1,0.5-1.5
	c3.3-2.2,6.5-4.6,9.8-6.7c3.2-2.1,6.2-4.3,8.3-7.5c1.2-1.9,3-2.6,5.1-2.8c1.2-0.1,2.5-0.4,3.7-0.7c1.6-0.4,2.9-1.2,3.6-2.7
	c0.3-0.6,0.7-0.7,1.3-0.6c2.3,0.3,4.6,0.4,6.8,0.7c0.7,0.1,1.6,0.4,2,0.9c1.9,2.6,3.9,5.3,5.6,8.1c1.5,2.6,2.8,5.3,4.1,8
	c2.3,4.8,4.8,9.6,6.9,14.5c2.4,5.4,4.7,10.9,6,16.7c0.9,4.2,1.4,8.4,2,12.6c0.3,1.9,0.4,3.7,0.7,5.6c0.4,3-0.3,3.8-3,5.2
	c-5,2.6-10.4,3.9-16,4.7c-5.2,0.8-10.4,1.6-15.7,1.3c-4.5-0.3-9-0.9-13.4-1.3C149.6,189.7,148.7,189.6,147.7,189.4z"/>
<path class="st1" d="M85.7,184.3c-0.1-2.8-0.9-4.9-3.9-5.7c0.4-2.1,0.8-4.2,1.3-6.3c1.8-8,3-16,2.7-24.2c0-0.5-0.1-1,0.7-1
	c3.1,0,5.9-1.2,8.6-2.6c1.2-0.6,2.2-0.7,3.1,0.2c1.4,1.3,3,1.2,4.6,0.9c1-0.2,1.9-0.1,3,0c1.5,0.2,3.2,0,4.7-0.2
	c3.6-0.7,7.2-1.6,10.8-2.2c1.6-0.3,3.3-0.2,4.9-0.5c1.2-0.2,2.5-0.5,3.7-1c0.8-0.3,1.2-0.2,1.4,0.6c0.8,3,1.6,5.9,2.3,8.9
	c1.2,4.8,2.2,9.7,4.1,14.2c0.4,0.9,0.8,1.8,1.2,2.7c1.8,4,3.6,7.9,5.3,11.9c0.1,0.3,0.2,0.6,0.3,1c-3.1,0.7-4.5,2.8-4.9,5.7
	c-3.1-0.5-5.9,0-7.7,3.1c-1.5-2.1-3.5-2.3-5.7-1.8c-2.2,0.5-3.6,2.2-4.9,4c-1.7-2.3-4-2.8-6.5-2.3c-2.4,0.5-4.5,1.7-5.9,3.9
	c-0.9-1.5-1.6-3.2-3.4-3.7c-1.9-0.5-3.3,0.5-4.6,2c-0.3-1-0.6-1.8-0.9-2.7c-1.1-2.9-3.9-3.8-6.5-2c-0.5,0.4-1,0.8-1.7,1.3
	c-0.2-0.8-0.4-1.5-0.6-2.2c-0.8-2.5-1.8-3.1-4.6-2.2C86.2,184.2,86,184.2,85.7,184.3z"/>
<path class="st1" d="M101.4,123.3c-0.5,0.3-1,0.6-1.6,0.8c-2.5,1.2-5.1,2.5-7.6,3.7c-0.4,0.2-0.9,0.4-1.3,0.4
	c-2.8-0.1-5.3,0.8-7.7,2.1c-1.4,0.7-1.9,0.5-2.1-1.1c-0.4-2.9-1.1-5.8-1-8.7c0-5.1,0.5-10.3,0.8-15.4c0.1-0.8,0.3-1.7,0.5-2.5
	c0.5-1.5,1.1-2,2.7-2c3,0,5.9-0.1,8.8-1c1.9-0.6,3.8-1.5,5.7-2.3c1-0.4,2-0.7,3-0.8c2.6-0.1,5.2-0.2,7.8-0.2
	c8.7,0.2,17.4,0.2,26,0.6c6.4,0.3,12.8,1,19.2,1.8c2.2,0.3,4.3,1.1,6.4,1.8c0.5,0.2,1,0.9,1.1,1.4c0.5,2.6,0.3,5.2-0.4,7.7
	c-0.1,0.3-0.4,0.7-0.7,0.8c-3.6,1.4-7.3,2.8-11,4c-2.2,0.7-4.6,1-6.9,1.6c-1.7,0.4-3.3,1-5,1.5c-1,0.3-2,0.5-3.1,0.7
	c-1.8,0.3-3.7,0.8-5.5,0.7c-2.4-0.2-4.7,0-7,0.2c-3.9,0.3-7.9,0.4-11.7,1.1c-2.6,0.5-5.2,0.7-7.9,0.8c-1.7,0-3.5-0.2-5.2-0.2
	c-0.4,0-0.8-0.1-1.2,0c-0.3,0.1-0.8,0.3-0.8,0.5c-0.1,0.3,0.1,0.9,0.4,1c0.4,0.3,1,0.5,1.5,0.5c1.3,0.1,2.6,0,3.8,0
	C101.4,123.1,101.4,123.2,101.4,123.3z"/>
<path class="st1" d="M180.8,92.8c2-1.4,4.1-2.9,6.4-4.6c1,3.3,1.9,6.4,0.6,9.6c-0.5,1.2-1.2,2.4-1.8,3.6c-0.2,0.4-0.5,0.7-0.6,1.1
	c-0.3,0.7,0,1.2,0.6,1.6c0.6,0.4,1.1,0,1.3-0.5c0.8-1.5,1.6-3,2.1-4.6c1.2-4.4,0.5-8.6-1.1-12.7c-1.7-4.3-4.3-8-6.8-11.8
	c-3.1-4.7-6.8-9-9.3-14.1c-1.2-2.4-1.8-4.9-2.1-7.5c-0.2-1.8,0.3-3.5,1.1-5c2.1-4,4.9-7.6,7.6-11.1c0.4-0.5,1-0.9,1.4-1.4
	c1.4-1.3,2.9-1.5,4.6-0.8c2.4,1.1,4.5,2.6,5.8,4.9c0.8,1.5,2,2.8,2.7,4.4c1,2.2,1.9,4.4,2.6,6.7c1.2,4,2.3,7.9,3.3,12
	c1,4.1,1.9,8.1,2.4,12.3c0.6,4.3,0.9,8.6,0.7,13c-0.2,3.5,0,6.9-0.1,10.4c-0.2,4.5-0.4,8.9-0.8,13.4c-0.4,4.4-2,6.3-6.3,7.2
	c-3.3,0.8-6.7,1.2-10.1,1.7c-2.2,0.3-4.1-0.3-5.3-2.5c-0.5-1-1.3-1.8-1.7-2.8c-0.4-0.9-0.4-1.9-0.5-2.9c0-0.3,0.2-0.8,0.5-0.9
	c3.4-2.2,4.4-5.6,4.6-9.3c0.1-2.2-0.2-4.4-0.5-6.5C182,94.8,181.3,93.9,180.8,92.8z"/>
<path class="st1" d="M155.5,95.9c-4.9,0-9.4-1.2-13.7-3.4c-2.1-1.1-4.2-2.2-6.3-3.4c-0.8-0.5-1.6-1.2-2.3-1.8
	c-1.6-1.6-3.2-3.3-4.8-4.9c-2.3-2.2-2.9-4.9-2.9-7.9c0.1-5.4,2.1-10,5.9-13.8c1-1,2.3-1.6,3.8-1.5c2.8,0.1,5.5,0.1,8.3,0.1
	c5.8,0.2,11.4-0.9,16.8-3c1.7-0.7,3.3-1.4,4.9-2.2c1.2-0.6,1.5-0.3,1.8,1c0.4,1.9,1,3.8,1.8,5.7c2.9,7.4,7.9,13.4,12.9,19.4
	c1.1,1.3,2.3,2.6,3.4,4c0.7,0.9,0.4,1.9-0.2,2.6c-1,1-2.1,1.9-3.3,2.6c-4.6,2.9-9.8,4.1-15,5.2C162.9,95.3,159.3,95.9,155.5,95.9z"
	/>
<path class="st1" d="M140.1,56.7c-2,0-4,0-6,0c-2,0-3.7,0.5-5.3,1.7c-2.4,1.8-4.2,4-4.9,7c-0.9,4.1-1.3,8.1-0.1,12.2
	c0.4,1.5,1.2,2.9,1.9,4.2c1.8,3.2,4.8,5.4,7.7,7.6c1.2,0.9,2.4,1.9,3.5,2.9c0.3,0.3,0.4,0.9,0.5,1.4c-0.5,0-0.9,0.1-1.4,0.1
	c-2.6-0.3-5.1-0.6-7.7-0.8c-1.4-0.1-2.8-0.1-4.1,0c-1,0.1-1.5-0.3-1.7-1.2c-0.5-2.5-1.1-5-1.4-7.5c-0.5-5-0.6-10-0.3-15
	c0.6-7.7,1.9-15.4,4.4-22.7c1.7-5,4.1-9.9,8.1-13.7c2.6-2.5,5.8-4,9.1-5.1c6-2.1,12.2-2.9,18.6-2.4c4,0.3,7.8,1.2,11.4,2.9
	c1.4,0.7,2.6,1.9,3.7,3.1c1,1.2,1,2.7,0.4,4.1c-0.7,1.6-1.5,3.1-2.5,4.5c-1.8,2.8-3.6,5.6-6.1,7.9c-5.3,4.8-11.6,7.5-18.5,8.4
	c-3.1,0.4-6.2,0.4-9.3,0.6C140.1,56.9,140.1,56.8,140.1,56.7z"/>
<path class="st1" d="M63.4,89.3c1.2-1.4,2.4-2.6,3.3-3.9c1.8-2.6,3.5-5.3,5.3-7.9c0.6-0.9,1.6-1.6,2.5-2.4c1.7-1.4,3-3,3.9-5.1
	c0.7-1.7,1.5-3.4,2.2-5.1c0.4-1.1,0.7-2.2,0-3.4c-0.4-0.7,0.4-1.9,1.2-1.9c4.7-0.1,9.4-0.1,14.1-0.2c3.7-0.1,7.1,0.9,10.2,2.8
	c4.3,2.6,7.4,6.3,8.5,11.2c0.5,2.3,0.5,4.8,0.3,7.2c-0.3,3-2,5.4-4.3,7.2c-5.7,4.7-12,8.3-19.2,10.1c-5.4,1.3-10.8,1.4-16.2-0.3
	c-4.4-1.4-8.2-4-11.3-7.6C63.7,89.8,63.5,89.4,63.4,89.3z"/>
<path class="st1" d="M95,128.8c0.6-0.4,1.1-0.8,1.6-1.1c3.8-1.8,7.8-3.5,12-4.2c1.9-0.3,3.9-0.5,5.8-0.5c5.8-0.2,11.5-0.8,17.3-1.6
	c3.7-0.6,7.4-1.2,11.1-1.8c0.1,0,0.3,0,0.4,0c1.1-0.1,1.3,0.2,0.8,1.1c-0.4,0.8-0.9,1.5-1.5,2.1c-4,4.1-8.6,7.3-13.5,10.2
	c-4.6,2.7-9.7,4.3-14.7,6c-3.4,1.2-6.9,2.2-10.4,3.1c-2.5,0.7-2.5,0.5-2.9-1.9c-0.2-1.4-0.5-2.8-0.8-4.2
	C99.3,133.1,97.8,130.7,95,128.8z"/>
<path class="st1" d="M97.2,136.9c0,3-1.1,5.4-4.2,6.3c-2,0.6-4,1.1-6,1.4c-0.7,0.1-1.7-0.2-2.2-0.7c-2.3-1.8-4.2-3.9-4.9-6.9
	c-0.3-1.1-0.1-2,0.8-2.8c3.1-2.6,6.7-4.2,10.8-3.8C94.8,130.8,97.3,132.8,97.2,136.9z"/>
<path class="st1" d="M182.5,204.8c0,2.5,0,4.9,0,7.4c0,1.1-0.6,1.5-1.6,1.3c-1.8-0.3-3.7-0.6-5.4-1.1c-0.5-0.1-1.1-0.9-1.3-1.5
	c-0.8-3.3-1.6-6.6-2.3-9.9c-0.2-1-0.4-1.9-0.6-2.9c-0.2-0.9,0-1.1,1-1.2c2.4-0.2,4.8-0.4,7.1-0.6c0.8-0.1,1.5-0.2,2.3-0.2
	c0.8,0,1.2,0.4,1.2,1.3c0,2.5,0,4.9,0,7.4C182.7,204.8,182.6,204.8,182.5,204.8z"/>
<path class="st1" d="M165.6,106c0-1,0-1.9,0-2.8c0.1-1.6-0.6-2.7-1.9-3.4c-0.6-0.3-1.1-0.7-1-1.5c0.1-0.8,0.8-0.9,1.4-1.1
	c2.8-0.6,5.5-1.3,8.3-1.9c1.8-0.3,3.5,0,4.8,1.4c0.8,0.9,0.8,1.1,0,2c-1.1,1.2-2.3,2.4-3.3,3.8c-1.1,1.4-2.3,2.3-4,2.7
	C168.6,105.4,167.2,105.7,165.6,106z"/>
<path class="st1" d="M161.5,196.9c2.1,0,4.2,0,6.3,0c0.2,0,0.6,0.4,0.7,0.7c0.7,2.1,1.4,4.1,2.1,6.2c0.6,2,1.2,3.9,1.8,5.9
	c0.4,1.2,0.1,1.6-1.2,1.5c-1.3,0-2.5-0.1-3.8-0.2c-1,0-1.6-0.5-1.9-1.5c-1.3-4.1-2.7-8.3-4-12.4C161.5,197,161.5,196.9,161.5,196.9z
	"/>
<path class="st1" d="M122.3,201c-0.5,1.3-0.9,2.4-1.3,3.5c-0.7,2-1.3,4-2,5.9c-0.1,0.3-0.5,0.7-0.8,0.8c-2.4,0.6-4.8,1-7.3,1.6
	c0-0.2-0.1-0.4-0.1-0.7c0.3-3.2,0.6-6.4,0.9-9.6c0.1-0.8,0.4-1,1.2-1c2.6-0.1,5.3-0.4,7.9-0.5C121.3,200.9,121.7,201,122.3,201z"/>
<path class="st1" d="M104.1,201.6c1.5-0.1,3-0.2,4.5-0.2c0.7,0,0.9,0.3,0.9,1c-0.2,2.8-0.3,5.6-0.5,8.5c0,0.7-0.3,0.9-1,0.8
	c-0.9-0.1-1.9-0.1-2.8-0.2c-0.3,0-0.7-0.4-0.7-0.6c-0.2-3-0.3-6-0.5-9C104,201.7,104.1,201.6,104.1,201.6z"/>
<path class="st1" d="M116.2,216.4c-0.2,2.8-2.4,4.9-4.8,4.4c-1.6-0.4-2.5-1.9-2.2-3.4c0.4-2,1.3-2.8,3.2-3.1c0.7-0.1,1.3-0.2,2-0.2
	c0.3,0,0.8,0.2,0.9,0.4C115.7,215.1,116,215.8,116.2,216.4z"/>
<path class="st1" d="M63.3,96.8c-1.9-0.2-3.7-1.7-4.4-3.6c-0.4-1.2-0.7-2.4,0-3.7c0.4-0.7,0.7-0.9,1.3-0.3c0.2,0.2,0.4,0.4,0.6,0.7
	c1.5,1.5,3,3,4.6,4.5c0.9,0.9,0.9,1.2-0.2,1.7C64.6,96.4,64,96.6,63.3,96.8z"/>
<path class="st1" d="M167.4,217.7c2,0,3,0.9,3,2.8c0,1.7-1.2,2.7-3.3,2.7c-1.5,0-2.6-1.1-2.6-2.6
	C164.5,218.7,165.5,217.7,167.4,217.7z"/>
<path class="st1" d="M84.2,185.9c-0.2,0.6-0.3,1.2-0.5,1.8c-0.6-0.3-1.2-0.4-1.7-0.8c-0.7-0.4-1.4-0.9-2-1.5
	c-0.3-0.3-0.6-0.9-0.5-1.3c0.2-0.9,0.6-1.8,1.1-2.7c0.4-0.7,1-0.5,1.6-0.2c1.3,0.8,1.5,2.2,1.8,3.5c0.1,0.4,0,0.7,0,1.1
	C84.1,185.9,84.1,185.9,84.2,185.9z"/>
<path class="st1" d="M99.4,217.8c0.2-0.6,0.3-1.2,0.6-1.8c0.3-0.6,0.5-1.3,1.5-1.2c0.9,0.1,1.8,0.4,2,1.3c0.2,0.9,0,1.8-0.8,2.3
	c-0.4,0.3-0.9,0.5-1.3,0.7C99.8,219.6,99.4,219.3,99.4,217.8z"/>
<path class="st1" d="M155,215.1c1,0,1.7,0.7,1.7,1.7c0,1-1.1,2.3-2.1,2.3c-0.9,0-2-0.9-2-1.8C152.6,216.2,153.8,215.1,155,215.1z"/>
<path class="st1" d="M87.7,187c0.7-0.1,0.9,0.5,1.1,1.2c0.1,0.7-0.4,1-1,1.1c-0.2,0-0.3,0-0.5,0.1c-0.8,0.3-1.5,0.1-1.8-0.7
	c-0.3-0.8,0.3-1.4,1.3-1.6C87.1,187.1,87.3,187.1,87.7,187z"/>
<path class="st1" d="M177.5,191.8c2.3-0.4,4.5-0.8,6.8-1.1c0,0.1,0,0.2,0.1,0.4c-2.3,0.4-4.5,0.8-6.8,1.1
	C177.5,192.1,177.5,191.9,177.5,191.8z"/>
<path class="st0" d="M179,175.6c-4.1-0.1-7.2-1.7-9.3-5.2c-1.6-2.7-3-5.5-4.5-8.2c-0.4-0.7-0.3-1.4,0.5-1.7c1.3-0.7,2.6-1.5,4.1-2
	c4-1.4,8.1-2.7,12.1-4c0.4-0.1,0.9-0.1,1.4-0.3c1.5-0.5,2.4,0.1,3.2,1.4c1.4,2.6,3,5.1,3.5,8c0.9,5.5-1.6,9.5-7.2,11.3
	C181.6,175.3,180.3,175.4,179,175.6z"/>
<path class="st0" d="M136.1,73.2c-0.3-0.1-0.6,0-0.8-0.2c-0.2-0.2-0.5-0.5-0.5-0.8c0-0.2,0.4-0.5,0.6-0.5c0.8-0.2,1.7-0.3,2.5-0.4
	c0.2,0,0.5,0.2,0.5,0.3c0,0.3,0,0.7-0.2,0.8c-1,0.6-0.8,1.5-0.7,2.3c0.6,3.3,1.5,6.5,3.2,9.4c1.7,2.7,4.2,4.6,7.3,5.3
	c4.5,1.1,9.1,0.9,13.1-1.7c1.2-0.8,2.2-2,3.2-3.1c0.4-0.5,0.7-1,1.2-1.5c0.5-0.6,0.8-1.1,0.2-1.8c-0.2-0.2,0-0.7,0-1.1
	c0.4,0.1,0.8,0.1,1.1,0.3c0.4,0.3,0.7,0.7,1.1,1.1c0.2,0.2,0.5,0.6,0.4,0.8c-0.1,0.3-0.5,0.4-0.8,0.6c-0.3,0.2-0.8,0.4-1,0.7
	c-2.2,3.2-4.6,5.9-8.6,6.9c-3.1,0.8-6.2,0.8-9.3,0.1c-4.6-1.1-8-3.7-9.8-8.2c-1.2-3-2.2-6.1-3.2-9.2C136,73.3,136,73.2,136.1,73.2z"
	/>
<path class="st0" d="M158.6,70.8c-0.5,0.9-0.8,1.7-1.4,2.3c-0.3,0.3-1.2,0.5-1.6,0.4c-0.5-0.2-1.1-0.9-1-1.4c0.1-0.8,0.4-1.8,1-2.4
	c0.3-0.4,1.3-0.6,1.9-0.4C158,69.4,158.2,70.1,158.6,70.8z"/>
<path class="st0" d="M154.3,68.3c0,0.8-0.6,1.6-1.6,2.2c-1,0.6-2.3-0.4-2.3-1.7c0-0.9,0.9-2.1,1.8-2.4
	C153.3,66,154.2,66.7,154.3,68.3z"/>
<path class="st0" d="M77.7,87.1c0,0-0.3,0.3-0.6,0.3c-0.3,0-0.7-0.1-0.9-0.3c-0.1-0.2-0.1-0.7,0.1-0.9c0.4-0.6,0.9-1.2,1.4-1.8
	c0.1-0.2,0.5-0.3,0.6-0.3c0.3,0.1,0.6,0.4,0.6,0.7c0,1,0.6,1.5,1.3,2c3.5,2.6,7.3,4.8,11.8,4.6c5.4-0.1,9.7-2.7,12.8-7.2
	c0.7-1.1,0.8-2.7,1-4c0.3-2.4,0.5-4.8-0.2-7.1c-0.1-0.4-0.5-0.8-0.8-1.2c-0.2-0.3-0.3-0.5-0.5-0.8c0.3-0.1,0.5-0.3,0.8-0.4
	c0.5-0.2,0.9-0.3,1.4-0.4c0.3,0,0.7,0.1,1,0.1c-0.1,0.4,0,1-0.2,1.1c-0.9,0.4-0.7,1.1-0.6,1.8c0.2,1.6,0.4,3.2,0.5,4.8
	c0.2,3.6-0.9,6.6-3.3,9.3c-3.3,3.7-7.5,5.7-12.4,5.8c-2.3,0.1-4.5-0.7-6.6-1.8C82.5,90.1,80.2,88.6,77.7,87.1z"/>
<path class="st0" d="M88.8,76.2c0,1-0.6,1.6-1.5,1.5c-1.7-0.1-2.7-2.2-1.8-3.6c0.4-0.6,1-0.8,1.7-0.4C88.3,74.2,88.7,75.2,88.8,76.2
	z"/>
<path class="st0" d="M89.7,74c0-1.1,0.5-1.7,1.3-1.7c1.1,0,1.9,1,1.9,2.3c0,0.9-0.6,1.7-1.3,1.7C90.7,76.3,89.7,75.2,89.7,74z"/>
<path class="st1" d="M179.1,173.8c-4,0.4-8.8-3.2-10.1-6.9c-0.2-0.6-0.1-1.1,0.5-1.3c0.6-0.2,1.1-0.4,1.7-0.6
	c4.5-1.4,9.1-2.7,13.6-4.1c1.6-0.5,1.8-0.5,2.2,1.1c0.4,1.6,0.7,3.4,0.7,5c0,3.6-3.5,6.1-6.6,6.6
	C180.5,173.7,179.8,173.7,179.1,173.8z"/>
<path class="st1" d="M182.1,160.2c-0.2,0.2-0.4,0.5-0.7,0.6c-4,1.3-8,2.6-12,3.8c-0.7,0.2-1.3,0-1.7-0.7c-1.5-2.2-1.5-2.8,1-3.7
	c3.9-1.4,7.9-2.5,11.8-3.7c0.5-0.2,0.8-0.1,0.9,0.5C181.6,157.9,181.8,159,182.1,160.2z"/>
</svg>
