<?xml version="1.0" encoding="utf-8"?>
<!-- Generator: Adobe Illustrator 22.1.0, SVG Export Plug-In . SVG Version: 6.00 Build 0)  -->
<svg version="1.1" xmlns="http://www.w3.org/2000/svg" xmlns:xlink="http://www.w3.org/1999/xlink" x="0px" y="0px"
	 viewBox="0 0 250 250" style="enable-background:new 0 0 250 250;" xml:space="preserve">
<style type="text/css">
	.st0{fill:#0D2636;}
	.st1{fill:none;stroke:#0D2636;stroke-width:2;stroke-miterlimit:10;}
</style>
<g id="Layer_1">
	<path class="st0" d="M148.8,181.1v-22.4c0-7.5-2.5-12.4-5.4-14.9c18-2.1,37.1-8.7,37.1-39.8c0-8.8-3.1-16-8.2-21.6
		c0.8-2.1,3.4-10.1-1-21.3c0,0-6.5-2.1-21.9,8.2c-6.5-1.8-13.7-2.9-20.5-2.9c-6.9,0-14.1,1.1-20.5,2.9C93,59.1,86.5,61.2,86.5,61.2
		c-4.4,11.1-1.8,19.1-1,21.3c-5.1,5.6-8.2,12.8-8.2,21.6c0,31.1,19.1,37.6,37.1,39.8c-2.3,2-4.4,5.7-5.2,11
		c-4.6,2-16.5,5.7-23.7-6.7c0,0-4.3-7.7-12.3-8.2c0,0-8-0.2-0.7,4.9c0,0,5.4,2.5,9,11.8c0,0,4.9,15.5,27.5,10.6v13.9
		c0,1.9-1.4,4.1-4.7,4c7.8,2.5,16,3.8,24.6,3.8c8.5,0,16.7-1.3,24.4-3.8C150.1,185.4,148.8,183.2,148.8,181.1z"/>
</g>
<g id="Layer_2">
	<circle class="st1" cx="125" cy="125" r="122.5"/>
</g>
</svg>
