<?xml version="1.0" encoding="utf-8"?>
<!-- Generator: Adobe Illustrator 22.1.0, SVG Export Plug-In . SVG Version: 6.00 Build 0)  -->
<svg version="1.1" id="Layer_1" xmlns="http://www.w3.org/2000/svg" xmlns:xlink="http://www.w3.org/1999/xlink" x="0px" y="0px"
	 viewBox="0 0 50 50" style="enable-background:new 0 0 50 50;" xml:space="preserve">
<style type="text/css">
	.st0{fill:#0D2636;}
</style>
<path class="st0" d="M25,1.2C11.9,1.2,1.2,11.9,1.2,25S11.9,48.8,25,48.8S48.8,38.1,48.8,25S38.1,1.2,25,1.2z M29.5,29.6
	c0.7,0.6,1.3,1.8,1.3,3.6v5.4c0,0.5,0.3,1,1.1,1C30,40.2,28,40.5,26,40.5c-2.1,0-4.1-0.3-6-0.9c0.8,0,1.1-0.5,1.1-1v-3.4
	c-5.5,1.2-6.7-2.6-6.7-2.6c-0.9-2.3-2.2-2.9-2.2-2.9c-1.8-1.2,0.2-1.2,0.2-1.2c1.9,0.1,3,2,3,2c1.7,3,4.6,2.1,5.7,1.6
	c0.2-1.3,0.7-2.2,1.3-2.7c-4.4-0.5-9-2.1-9-9.7c0-2.1,0.8-3.9,2-5.2c-0.2-0.5-0.8-2.5,0.2-5.2c0,0,1.6-0.5,5.3,2
	c1.6-0.4,3.3-0.7,5-0.7c1.6,0,3.4,0.3,5,0.7c3.7-2.5,5.3-2,5.3-2c1.1,2.7,0.4,4.7,0.2,5.2c1.2,1.4,2,3.1,2,5.2
	C38.5,27.5,33.8,29.1,29.5,29.6z"/>
</svg>
