<?xml version="1.0" encoding="utf-8"?>
<!-- Generator: Adobe Illustrator 22.1.0, SVG Export Plug-In . SVG Version: 6.00 Build 0)  -->
<svg version="1.1" id="Layer_1" xmlns="http://www.w3.org/2000/svg" xmlns:xlink="http://www.w3.org/1999/xlink" x="0px" y="0px"
	 viewBox="0 0 250 250" style="enable-background:new 0 0 250 250;" xml:space="preserve">
<style type="text/css">
	.st0{fill:#FFFFFF;}
</style>
<g id="Layer_1_1_">
	<g>
		<path d="M142.3,21c-0.1,0.7,0,1.5-0.2,2.1c-2,5-4,9.9-6,14.9c-0.5,1.3-1.2,2.6-1.8,3.8c-0.1,0-0.2-0.1-0.2-0.1
			c0.1-0.4,0.2-0.8,0.3-1.2c2.1-5.9,4.3-11.8,6.5-17.7c0.2-0.6,0.6-1.2,0.9-1.8C141.9,21,142.1,21,142.3,21z"/>
		<path d="M158.8,104c0,0.5,0,0.8,0.1,1.2c0.3,1.4,0.1,2.8-0.7,4c-3.3,5.8-7.8,10.3-14.1,12.7c-1.6,0.6-3.5,0.6-5.3,0.9
			c-0.5,0.1-1,0-1.4,0c-0.2,2-0.3,3.9-0.4,5.8c-0.6,8.8-2.4,17.3-5,25.7c-2.6,8.3-6.1,16.3-9.6,24.3c-2.7,6.2-5.6,12.4-8.3,18.6
			c-0.5,1.1-1.1,2.2-1.6,3.3s-1,2.2-2.4,2.7c1.3,0.2,2.5,0.4,3.8,0.6c3,0.6,5.8,1.6,8.2,3.7c1.4,1.2,1.5,2.6,0.1,3.8
			c-1.4,1.3-3.2,1.9-5.1,2.2c-3.7,0.7-7.3,0.3-10.7-1.3c-1.1-0.5-2-1.2-3.1-1.8c-2.3,0.8-3.8,0.6-5-0.9c-1.7,1.1-3.7,1.4-5.7,1.2
			c-0.3,0-0.7,0.1-0.9,0.4c-2.2,2.6-5.3,3.7-8.5,4.3c-2.5,0.4-5,0.7-7.5,0.3c-1.5-0.3-3.1-0.7-3.7-2.4s0.2-3.1,1.3-4.2
			c2.6-2.7,5.8-4.1,9.3-5.1c1.6-0.4,3.2-0.7,4.7-1.1c-1.1-1-1.1-1-0.5-2.6c3.1-7.7,6.3-15.3,9.2-23.1c1.6-4.3,2.7-8.8,4-13.3
			c0.2-0.5,0.3-1,0.6-1.8c-1.8,0.9-3.5,1.2-5.2,0.2c-0.1,0.2-0.2,0.4-0.2,0.6c0.2,1.7,0.5,3.4,0.8,5.1c0.2,0.9,0.5,1.8,0.7,2.7
			c0.4,2.2-0.7,3.3-3,3c-0.2,0.4-0.5,0.9-0.8,1.3c-0.8,1.1-1.9,1.2-2.9,0.2c-0.8-0.7-1.6-1.5-2.5-2.2c-1.7-1.3-2.8-3-2.7-5.2
			c0.1-2.7,0.4-5.4,0.7-8.2c0.1-0.8,0.3-1.7,0.4-2.5c0-0.2-0.2-0.6-0.4-0.8c-0.6-0.7-1-1.4-1-2.4c0.9-13.4,2.9-26.7,5.8-39.8
			c0-0.1,0-0.2,0.1-0.3c0.4-2.6,1.7-4.5,4-5.9c2.5-1.5,4.8-3.3,7.2-4.9c0.8-0.5,0.8-1.2,0.8-1.9c0-0.1-0.6-0.4-0.9-0.4
			c-2-0.4-4.1-0.6-6.1-1.1c-2.8-0.7-4.9-2.4-6.2-4.9c-1.5,0.3-3,0.6-4.5,0.7c-4.4,0.4-7.8-4.2-6.2-8.3c0.6-1.5,1.6-2.4,3.9-3.3
			c-0.5-0.8-1-1.6-1.4-2.4c-0.3-0.6-0.8-0.5-1.3-0.3c-2.3,0.7-4.6,0.5-7,0c-2.1-0.4-3.2-1.7-3.6-3.8c-0.5-2.8-0.2-5.6,0.4-8.3
			C73.1,55.3,80,43.3,91.3,34c3.8-3.1,8-5.8,12.8-7.2c2-0.6,4.1-0.8,6.2-0.3c3.5,0.9,5.4,3.8,4.6,7.3c-0.5,2.1-1.3,4.1-2,6.1
			c-0.5,1.3-1,2.5-1.6,3.8c0.5,0.6,1.1,0.8,1.9,0.6c2.4-0.3,4.5-1.2,6.7-2.1c0.2-0.1,0.5-0.2,0.7-0.3c2.3-0.7,3.9,0.8,3.1,3
			c-0.5,1.5-1.4,2.9-2.3,4.2c-1,1.5-2.3,2.8-3.3,4c0.7,2.4,1.3,4.8,2,7.2c0.1-0.1,0.3-0.3,0.5-0.5c1.6-1.7,3.8-1.5,5,0.5
			c1,1.7,1.4,3.6,1.7,5.5c0.1,0.9,0.3,1.6,1.2,2.1c1.7,1.1,2.2,3,2.3,5c0.3,4.1-0.8,7.8-2.6,11.4c-1.2,2.4-2.8,4.6-4.2,7
			c-0.2,0.3-0.3,0.8-0.2,1.2c0.1,0.7,0.3,1.5,0.5,2.2c0.3,1.1,1,1.4,2,0.8c0.7-0.5,1.1-0.1,1.2,0.5c0.1,1,0.8,1.5,1.6,2.1
			c2,1.5,3.4,3.4,4.6,5.5c0.3,0.5,0.9,1,1.4,1.2c5.5,2.3,10.3,0.7,14.6-2.9c1.7-1.4,3.1-3.2,4.7-4.7c0.8-0.7,1.2-1.4,1.1-2.5
			c0-0.7,0.3-1.4,0.6-2.1c0.4-0.9,0.3-1.5-0.4-2.2c-0.8-0.9-1.5-1.9-1.9-3c-0.9-2,0.3-3.7,2.5-3.7c0.7,0,1.4,0.1,2.1,0.2
			c1.8,0.4,3.1,1.3,3.3,3.3c0,0.6,0.2,1.1,0.4,1.9c1-1.2,1.9-2.1,2.8-3.1c1.5-1.8,3.5-3.1,5.5-4.1c1.2-0.6,2.6-0.7,3.9,0
			c0.3,0.1,0.8,0.1,1,0c1.3-0.7,2.7-0.7,3.8,0.2c1.2,1,1.4,2,0.4,3.2c-1.1,1.4-2.4,2.7-3.6,4c-0.3,0.3-0.5,0.8-0.7,1.2
			c-0.8,2.3-1.5,4.7-2.3,7.1c-0.6,1.8-2,2.9-3.8,3.4c-3,0.9-6.1,1.7-9.2,2.6C159.6,103.9,159.2,103.9,158.8,104z M114.8,206.1
			c-0.7-0.3-1.4-0.6-2.2-0.9c0.1,0.4,0.2,0.8,0.3,1.2c0.4-0.1,0.8-0.3,1.1-0.2c0.3,0.1,0.4,0.5,0.8,1
			C114.8,206.7,114.8,206.4,114.8,206.1c0.4,0.5,0.8,1.1,1.3,1.7c0.2-0.6,0.4-1,0.5-1.5c-0.1,0-0.1-0.1-0.2-0.1
			c-0.2,0.2-0.3,0.4-0.6,0.7c-0.1-0.4-0.2-0.6-0.3-0.8C115.4,205.6,115.1,205.6,114.8,206.1z M103.5,123c0.1,0.1,0.3,0.2,0.4,0.3
			c-0.7,1.4-1.4,2.7-2,4.1c-0.2,0.4-0.2,0.9-0.1,1.3c0.3,1.2,0.7,2.3,1,3.5c1.4,5.2,2.1,10.4,1.8,15.8c-0.1,1.6-0.2,1.6,1.4,1.8
			c1.4,0.2,2.7,0.2,4.1,0.3c0.4,0.1,1.1,0.3,1.2,0.6c0.6,1.6-0.8,4-2.5,4.1c-1.6,0.1-3.3-0.1-4.9-0.1c-0.6,2.7-1.2,5.5-1.9,8.3
			c-0.8,3.1-1.4,6.3-2.5,9.3c-2.9,7.9-6,15.7-9.1,23.5c-0.5,1.3-0.5,1.4,0.8,2c0.2,0.1,0.4,0.2,0.6,0.2c2.9,0.8,5.8,0.6,8.7-0.3
			c0.3-0.1,0.6-0.5,0.8-0.9c2.9-7.3,5.7-14.6,8.7-21.8c1.6-4,3.4-7.8,5.1-11.8c0.2-0.4,0.5-0.8,0.7-1.1c0.1,0.1,0.2,0.1,0.4,0.2
			c-3.8,12-8.8,23.6-13.5,35.5c2.6,0.8,5.2,1.1,7.7,0.6c0.4-0.1,0.9-0.5,1.1-0.9c1.4-2.8,2.7-5.6,4.1-8.4
			c5.4-11.3,10.5-22.8,14.3-34.7c0.1-0.4,0.2-0.8,0.3-1.1c-1.2,0.3-2.2,0.7-3.3,0.9c-0.6,0.1-1-0.1-1.2-0.7
			c-0.4-1.6,0.8-3.8,2.3-4.3c1-0.3,2-0.5,2.9-0.9c0.4-0.2,0.9-0.7,1-1.1c1.9-7.1,3-14.4,3.4-21.8c0.2-3.7,0.3-7.4-0.2-11
			c-0.6-4.5-1.9-8.7-4.7-12.4c-0.6-0.8-1.4-1.6-2.3-2.5c-0.1,1.2,0.1,1.6,0.9,2.7c1.3,1.7,1,2.3-1.1,2.6c-0.1,0-0.1,0-0.2,0
			c-2.1,0.1-4.2,0.3-6.2,0.4c-0.8,3.3-2.5,4.3-4.6,3c-0.9,1.5-1.8,3.1-2.8,4.6c-0.4,0.6-0.9,1.2-1.5,1.6c-0.8,0.6-1.5,0.3-1.7-0.6
			c-0.1-0.5-0.2-1.1-0.2-1.6c-0.1-1.8-0.7-3.2-2.4-4c-0.3-0.2-0.6-0.4-0.9-0.6c-0.5-0.5-0.5-1,0.2-1.3c0.6-0.3,1.3-0.5,1.9-0.7
			c2.1-0.5,4.2-0.9,6.3-1.3c0-0.2,0-0.4,0.1-0.6c0-0.1,0-0.2,0-0.1c-3.9,0-7.8,0-11.7,0c0.1,0.1,0.3,0.2,0.4,0.3
			c-0.4,0.2-0.9,0.4-1.3,0.7c-3.2,2.3-6.4,4.6-9.6,7c-0.4,0.3-0.7,0.8-0.8,1.2c-1.1,4.7-2.3,9.3-3.1,14c-1.2,7.2-2.2,14.5-3.2,21.8
			c-0.1,0.7-0.1,1.3-0.1,2c3,0.4,5.2-1.4,7.6-2.6c-0.2,0.5-0.4,0.9-0.8,1.2c-2,1.8-4.2,2.9-7.1,2.9c0,0.9,0,1.7,0,2.5
			c0,0.9,0.5,1.3,1.4,1.2c2.6-0.4,5.1-1.3,7-3.2c0.3-0.3,0.4-0.8,0.4-1.2c-0.3-3.9-0.2-7.8,0.6-11.6c1.2-5.4,3.3-10.3,6.5-14.8
			C102.4,124.1,103,123.6,103.5,123z M89,87.8c0.1,0.7,0.1,1.2,0.2,1.6c0.2,4.5,2.3,7.2,6.5,8.6c3.3,1.1,6.8,1.4,10.3,1
			c5.5-0.7,10.6-2.4,14.7-6.3c3.5-3.3,5.9-7.2,7.4-11.7c0.9-2.6,1.4-5.2,1-8c-0.5-3.1-1.6-4.4-4.7-5c-0.5-0.1-1.1-0.2-1.6-0.3
			c-2.7-0.4-4.2-2-4.7-4.6c-0.5-2.3-0.9-4.5-1.6-6.8c-0.7-2.2-2.4-3.4-4.7-3.8c-0.2,0-0.5-0.1-0.6,0c-0.9,0.8-1.8,1.7-2.9,2.7
			c2.9-0.2,5.1,0.7,6.9,2.6c0.4,0.4,0.8,0.9,0.2,1.3c-0.2,0.2-0.9,0-1.2-0.2c-2.2-1.9-4.6-2.2-7.4-1c-0.2-0.3-0.4-0.6-0.5-1
			c-0.3,0.3-0.6,0.5-0.9,0.8c-3.7,3.1-7.6,6.1-12.2,7.9c-0.2,0.1-0.5,0.4-0.6,0.6c-1.3,2.2-2,4.6-1.9,7.2c0,0.3,0,0.6,0,0.8
			C89.4,74.3,89,74,89,73c0.1-2.1,0.4-4.2,0.6-6.2c-0.7,0-1.7,0-2.7,0c-0.1,0-0.3,0.1-0.4,0.2c-0.9,1.5-1.8,3.1-2.5,4.5
			c3.7,4.2,6.1,8.5,4.2,14c-1.3,0-2.7-0.2-4,0c-1.2,0.2-2.5,0.5-3.4,1.2c-1.4,1-1.4,2.6-1,4.2s1.5,2.6,3.1,3
			c1.9,0.4,3.7-0.1,5.6-0.5C88,89.6,88.1,89,89,87.8z M109.8,42.9c1.3-2.3,2.9-7.6,3.1-10c0.1-2-0.7-3.3-2.6-3.8
			c-2.1-0.6-4.2-0.3-6.3,0.3c-4.8,1.4-8.9,4-12.7,7.2c-5.6,4.8-9.9,10.7-13.4,17.1c-2.8,5.1-5.2,10.4-6.5,16.2
			c-0.5,2.3-0.8,4.7-0.1,7.1c0.3,1,0.8,1.9,1.8,2.4c1.8,0.8,3.7,0.7,5.8,0.6c-1.4-1.7-1.4-3.5-0.9-5.3c0.6-2.5,1.3-5,2.3-7.2
			c3.3-7.1,8.1-13.1,13.8-18.4c2.8-2.6,5.9-4.9,9.6-6.3C105.7,42,107.8,41.4,109.8,42.9z M135.2,107c0.1,0.3,0.2,0.5,0.2,0.6
			c1.2,3.5,1.7,7.2,1.8,10.9c0.1,2.3,0.1,2.4,2.4,2.4c0.3,0,0.5,0,0.8,0c5.2-0.8,9.3-3.4,12.8-7.2c0.2-0.3,0.4-0.6,0.5-0.9
			c0.9-2.8,1.2-5.6,0.6-8.4c-0.1-0.7-0.3-1.4-0.5-2.4c0.4,0.3,0.6,0.4,0.7,0.6c1.5,2.7,0.8,5.6,0.7,8.6c1.2-1.7,2.4-3.2,2.1-5.3
			c-0.3-2.2-0.6-4.4-0.9-6.6c-0.1-0.4-0.3-0.7-0.5-1.2c-0.3,0.4-0.6,0.6-0.7,0.9c-2.2,3.2-5.1,5.5-8.5,7.2
			C143.1,107.9,139.3,108.8,135.2,107z M168.2,95.2c-0.1,0-0.2,0-0.3-0.1c0-0.3-0.1-0.6-0.1-0.9c0.2-2.9,1.4-5.1,3.9-6.6
			c1.7-1,2.8-1,3.8,0.2c0.8-1,1.6-1.9,2.4-2.9c0.6-0.8,0.2-1.6-0.8-1.6c-0.7,0-1.6,0.1-2.2,0.6c-2.4,1.9-4.8,4-7.2,6
			c-0.4,0.3-0.9,0.6-1.3,0.9c-0.1-0.1-0.2-0.2-0.2-0.3c2-2.7,4.5-5,7-7.4c-1-0.5-1.3-0.6-2.1-0.1c-1.3,0.8-2.5,1.7-3.7,2.7
			c-1.6,1.4-3.1,3-4.7,4.5c-0.9,0.8-1.5,0.6-1.9-0.5c-0.3-0.7-0.4-1.4-0.5-2.2c-0.2-1.3-0.7-2.1-1.9-2.3c-0.9-0.1-1.9,0-2.8,0.2
			c-1,0.3-1.1,0.9-0.4,1.7c0.5,0.6,1,1.2,1.6,1.9c1.2,1.4,1.5,2.9,0.9,4.6c-0.2,0.6-0.4,1.3-0.6,2c-0.1,0.3-0.1,0.7-0.1,1
			c0.5,1.6,1,3.2,1.5,4.9c3.3-0.5,6.6-0.9,9.7-2.3c0.9-0.4,2-1.1,2.4-2c1.2-2.4,2.2-5,3.2-7.5c0.3-0.7-0.2-1.2-1-1.1
			c-1.1,0.1-1.9,0.6-2.4,1.5c-0.6,1.2-1.1,2.5-1.7,3.7C168.6,94.4,168.4,94.8,168.2,95.2z M110.5,44.9c-0.8-1.1-1.7-1.6-2.9-1.7
			c-1.9-0.1-3.5,0.5-5.1,1.4c-4,2.1-7.2,5.1-10.4,8.3c-5.3,5.4-9.6,11.4-11.9,18.6c-0.6,1.9-0.8,4-1.1,6c-0.1,0.9,0.3,1.7,1.3,2.1
			c0-0.3,0-0.6,0.1-0.8c0.2-1.2,0.2-2.4,0.6-3.5c0.7-1.8,1.4-3.6,2.4-5.4c5.1-9.4,12.4-16.7,21.6-22.1
			C106.7,46.8,108.6,45.9,110.5,44.9z M94.4,154.1c-2,1.5-4.1,2.6-6.5,3.1c-0.8,0.2-1.1,0.5-1.1,1.2c-0.3,2.7-0.6,5.4-0.7,8
			c-0.1,1.8,0.4,3.5,1.7,5c-0.6-5.7-0.5-8.1,0.5-9.1c0,0.6,0.1,1.2,0.1,1.7c0,1.7,0,3.4,0.1,5.2c0.1,1.7,0.7,3.3,2,4.5
			c0.9,0.8,1.6,0.6,2.1-0.5c-2.3-2.5-3.4-8.5-1.7-10.9c0.1,1.1,0.2,2.1,0.3,3.1c0.2,1.6,0.4,3.2,0.9,4.8c0.2,0.8,1,1.5,1.6,2
			c0.8,0.6,1.7,0,1.6-1c0-0.5-0.2-1-0.3-1.5c-0.3-1.4-0.7-2.7-0.9-4.1c-0.3-1.7,0.1-3.4,0.8-5.1c0.6,0.3,1.1,0.6,1.5,0.9
			c1.2,0.8,2.3,0.6,3.1-0.6c0.8-1.3,0.7-2-0.7-2.9c-0.2-0.1-0.4-0.3-0.7-0.4C96.4,156.7,95.2,155.8,94.4,154.1z M101,158.8
			c1.9-9.6,2.5-19.1-0.5-28.6c-0.2,0.3-0.3,0.4-0.3,0.5c-2.9,6.2-4.3,12.7-3.7,19.6c0.1,1.2,0.1,2.2-1.1,3c0.6,0.6,1,1.1,1.5,1.6
			C98.3,156.1,100.3,156.8,101,158.8z M100.3,198.9c-3.7,0.8-7.5,0.9-11.1-0.6c-0.3,0.6-0.5,1.2-0.8,1.8c-0.4,0.7-0.2,1.1,0.5,1.4
			c2.2,1.1,4.5,1.6,6.8,1.3C98,202.5,100.1,201.9,100.3,198.9z M104.8,101.3c0.3,0.2,0.7,0.6,1,0.6c3,0.2,6.1,0.4,9.1,0.4
			c0.6,0,1.4-0.3,1.7-0.7c1.2-1.7,2.2-3.5,3.3-5.3c-0.1-0.1-0.2-0.1-0.3-0.2c-2.1,1.7-4.4,2.9-7,3.6
			C110.1,100.3,107.5,100.7,104.8,101.3z M101,201.6c2,0.8,4,1,6.1,0.9c1.9-0.1,2.8-0.9,3.2-2.6c-2.7-0.2-5.4-0.4-8.2-0.7
			C101.7,199.8,101.4,200.6,101,201.6z M125.8,66.7c0-1.9-0.1-3.7-0.9-5.3c-0.3-0.7-0.9-1.2-1.7-1.2c-0.9,0-1.4,0.5-1.7,1.3
			c-0.3,0.9-0.5,1.8-0.7,2.7c-0.2,1.1,0,1.4,1.2,1.6c-0.1-1.2,0.1-2.2,1-3c0.2-0.2,0.7-0.2,1.1-0.3c0.1,0,0.4,0.4,0.3,0.5
			c-0.2,0.2-0.4,0.5-0.7,0.6c-0.8,0.4-0.8,1.1-0.8,1.8c0,0.8,0.6,0.9,1.2,1C124.7,66.4,125.2,66.6,125.8,66.7z M122.1,94.8
			c-1.4,2.4-2.9,4.9-4.2,7.1c0.8,0.1,1.7,0.3,2.8,0.5c1.1-1.5,2.4-3.2,3.8-5.1C123.4,96.7,122.3,96.2,122.1,94.8z M120.1,47.6
			c0,0.1,0,0.2,0,0.3c-0.4,0-0.9,0.2-1.1,0.1c-0.3-0.2-0.5-0.7-0.5-1c0.3-1.1,1.2-0.5,2-0.6c-0.4-0.6-1.2-0.7-1.7-0.4
			c-0.6,0.4-0.9,1-0.6,1.7c0.3,0.9,0.9,1,2.5,0.5c0.1-1.1-0.1-1.3-1.4-0.8C119.6,47.5,119.8,47.5,120.1,47.6z M115.6,49.1
			c0.5,0,0.6-0.1,1.3-2.5c-1-0.4-0.1,1.7-1.3,1C115.6,48.1,115.6,48.6,115.6,49.1z"/>
		<path d="M172.6,61.6c-0.6,0.3-1.3,0.7-1.9,0.8c-4.5,0.9-8.9,1.8-13.4,2.7c-2.1,0.4-4.3,0.7-6.4,1.1c0-0.1-0.1-0.3-0.1-0.4
			c2.4-0.6,4.8-1.2,7.1-1.8c2.4-0.6,4.9-1.2,7.3-1.7c2.4-0.5,4.7-1.4,7.2-1.2C172.5,61.2,172.5,61.4,172.6,61.6z"/>
		<path d="M162.4,37c-0.4,0.5-0.7,1.1-1.1,1.5c-4.9,4.1-9.8,8.1-14.7,12.2c-0.3,0.3-0.7,0.5-1.3,0.6c0.3-0.3,0.5-0.6,0.8-0.9
			c4.7-4.2,9.3-8.5,14-12.7c0.5-0.5,1.2-0.8,1.9-1.2C162.2,36.7,162.3,36.8,162.4,37z"/>
		<path class="st0" d="M114.8,206.1c0,0.3,0,0.6,0.1,1.1c-0.3-0.4-0.5-0.9-0.8-1s-0.7,0.1-1.1,0.2c-0.1-0.4-0.2-0.8-0.3-1.2
			C113.4,205.6,114.1,205.8,114.8,206.1L114.8,206.1z"/>
		<path d="M117.9,150.4c1.9-0.1,3.7-0.2,5.6-0.3c1.3-0.1,1.4,0.1,1.4,1.4c-0.1,2.7-0.5,3.2-3.2,3.5c-2.5,0.3-4.9,0.5-7.4,0
			c-1-0.2-1.5-0.6-1.4-1.7c0.1-0.7,0.1-1.4,0.2-2.1c0.1-0.7,0.5-1,1.2-1c1.2,0,2.4,0,3.6,0C117.9,150.2,117.9,150.3,117.9,150.4z"/>
		<path d="M120.1,110.4c0.4,0.4,0.8,0.9,1.1,1.4c1.3,2.1,2.1,4.3,2.6,6.7c1.7,7.8,0.5,15.5-0.9,23.2c-0.3,1.5-0.8,3-1.3,4.5
			c-0.1,0.4-0.4,0.8-0.6,1.2c-0.1,0-0.2,0-0.3-0.1c0.1-0.5,0.1-1,0.2-1.5c0.8-4.4,1.8-8.8,2.5-13.3c0.4-2.5,0.4-5,0.3-7.5
			c-0.1-2.2-0.3-4.5-0.8-6.7c-0.6-2.4-1.7-4.6-2.5-7c-0.1-0.3-0.2-0.6-0.4-0.8C120,110.5,120,110.5,120.1,110.4z"/>
		<path d="M104.6,121.2c-1.3-3.8-3.3-7.2-6.1-10.2c1.4,0,3.2,1.7,4.7,4.5C104.2,117.3,105.3,119.1,104.6,121.2z"/>
		<path d="M120,88.8c-0.2,0.5-0.4,1-0.7,1.4c-1.6,1.9-3.7,2.9-6,3.3c-1.4,0.2-2.8,0.3-4.2,0.2c-2.8-0.3-4.3-1.6-6-4.5
			c-0.5,0.7-1,1.3-1.5,2c-0.8-0.8-0.8-1.7-0.4-2.4c1.3-2.3,3.1-4.1,5.6-5.2c0.2-0.1,0.5-0.1,0.8,0.1c-0.6,0.6-1.3,1.2-2,1.8
			c1.7,0.9,3.3,0.8,5,0.3c3.8-1.1,7-3.3,9.7-6.2c0.3-0.3,0.5-0.6,1-0.8c-0.5,1.7-1.7,2.8-2.9,4.1c0.1,0.2,0.2,0.3,0.3,0.4
			c1.2,1.7,1.2,1.7-0.5,2.9c-0.7,0.5-0.9,1.5-0.6,2.5c0.2,0.4,0.4,0.9,0.8,1.7c0.5-0.7,0.9-1.3,1.3-1.8
			C119.8,88.6,119.9,88.7,120,88.8z M117.6,83.7c-2,1-3.9,2-5.9,2.9c-2,0.8-4.1,0.8-6.2,0.2c-1-0.3-1.9,0.4-1.7,1.4
			c0.2,1.1,0.8,2.1,1.7,2.9c4.2-2.1,8.4-4.2,12.6-6.3C118,84.2,117.8,83.9,117.6,83.7z"/>
		<path d="M113.5,73.4c-2.3-0.3-3.9-1.5-4.7-3.6c-1-2.7-1.2-5.4,0.2-8.1c0.8-1.7,2.5-2.1,4.2-1.3c1.3,0.6,2.1,1.6,2.6,2.8
			c0.4,0.9,0.7,1.8,0.9,2.7c0.2,0.9,0.2,1.8,0.3,2.8c0.9-0.4,1.8-0.6,2.5,0.5c-2.4,0.9-4.1,2.3-5.1,4.8c0.5,0,0.8,0,1.1,0
			c1.2,0,1.8,0.4,1.8,1.7c-0.1,2.1-0.8,4-2.4,5.5c-0.3,0.3-0.8,0.4-1.2,0.6c-0.1-0.1-0.1-0.2-0.2-0.3c0.2-0.3,0.5-0.7,0.6-1
			c0.6-1.2,1.3-2.4,1.7-3.7c0.4-1.2-0.2-1.8-1.4-1.6c-3.4,0.5-6.1-1-7-3.8c-0.1-0.4-0.2-0.9-0.2-1.4c0.1,0,0.2-0.1,0.3-0.1
			c0.3,0.5,0.6,1,0.9,1.5c0.9,1.7,2.4,2.6,4.3,2.7c0.3,0,0.6-0.2,1-0.4C113.6,73.6,113.5,73.5,113.5,73.4z M109.9,68
			c0,0.2,0,0.3,0,0.5c0.1,1.4,0.9,2.4,2.1,3.1c1.6,0.9,2.9,0.3,3.2-1.5c0.5-2.3,0.3-4.5-0.8-6.6c-0.4-0.7-0.9-1.3-1.5-1.8
			c-1.2-0.9-2.3-0.5-2.9,0.8c-0.7,1.6-0.7,3.2-0.4,4.9C109.6,67.7,109.8,67.8,109.9,68z"/>
		<path d="M104.4,78.8c0.5,0,0.8,0.1,1.1,0.1c0,0.1,0,0.1,0,0.2c-1.8,0.6-3.7,1-5.4,1.7c-1.7,0.7-3.3,1.8-5,2.8
			c-0.2-1.8,1.2-2.3,2.2-3.1c-1-0.8-2.1-1.5-3-2.3c-2.2-1.8-2.9-6.3-1.3-8.6c1.2-1.7,3.3-2.4,5.6-1.8c4.2,1.1,6.8,5.3,6.1,9.5
			C104.6,77.8,104.5,78.3,104.4,78.8z M103.7,76.2c-0.1-3.6-2.6-6.6-6-7.3c-2-0.4-3.6,0.6-4.1,2.6c-0.7,2.6,0.9,5.7,3.4,7.2
			c1.9,1.2,3.7,0.7,5.5,0.3c0.2,0,0.4-0.3,0.4-0.4C103.2,77.9,103.4,77,103.7,76.2z"/>
		<path d="M87.4,90.7c-0.8-1.1-2-1.6-3.3-1.7c-1.5-0.2-1.9,0.3-1.7,1.8c0,0.3,0.1,0.6,0.1,0.9c-0.9-0.2-1-0.9-1.1-1.6
			c-0.1-0.8,0.1-1.4,0.9-1.8c1.5-0.7,4-0.1,5,1.2c0.2,0.3,0.3,0.8,0.4,1.1C87.6,90.6,87.5,90.6,87.4,90.7z"/>
		<path d="M96.6,45.5c-2,0-3.5-1.4-3.5-3.2c0-2,1.8-3.8,4-3.8c1.9,0,3.4,1.4,3.4,3.3C100.6,43.8,98.8,45.5,96.6,45.5z M97.1,39.6
			c-1.5,0-2.8,1.2-2.8,2.7c0,1.2,1,2.1,2.3,2.1c1.5,0,2.8-1.3,2.8-2.7C99.5,40.5,98.5,39.6,97.1,39.6z"/>
		<path d="M166,93.2c-0.4,0.2-0.8,0.4-1.2,0.6c-2.6,0.8-4.1,2.6-5,5c-0.1,0.2-0.4,0.4-0.6,0.6c-0.1-0.3-0.3-0.6-0.3-0.8
			c0.1-2.8,2.8-5.7,5.6-6c0.5,0,0.9,0.1,1.4,0.2C166,92.9,166,93,166,93.2z"/>
		<path class="st0" d="M117.6,83.7c0.1,0.2,0.3,0.6,0.6,1c-4.2,2.1-8.4,4.2-12.6,6.3c-0.9-0.7-1.5-1.7-1.7-2.9
			c-0.2-1,0.7-1.7,1.7-1.4c2.1,0.6,4.2,0.6,6.2-0.2C113.7,85.7,115.6,84.7,117.6,83.7z"/>
		<path class="st0" d="M109.9,68c-0.1-0.2-0.3-0.3-0.3-0.5c-0.3-1.7-0.3-3.3,0.4-4.9c0.6-1.4,1.7-1.7,2.9-0.8
			c0.6,0.4,1.1,1.1,1.5,1.8c1.1,2.1,1.3,4.3,0.8,6.6c-0.4,1.8-1.6,2.4-3.2,1.5c-1.2-0.7-2-1.7-2.1-3.1c0.3,0.5,0.6,1.1,1,1.5
			c1.1,1.1,2.6,0.7,2.9-0.8c0.1-0.8,0.1-1.6-0.1-2.4c-0.4-1.5-1.6-2.3-2.6-2C110.1,65.1,109.6,66.5,109.9,68z"/>
		<path d="M109.9,68c-0.4-1.5,0.1-2.8,1.2-3.2c1-0.3,2.2,0.5,2.6,2c0.2,0.8,0.3,1.6,0.1,2.4c-0.3,1.5-1.8,1.9-2.9,0.8
			c-0.4-0.4-0.7-1-1-1.5C109.9,68.3,109.9,68.2,109.9,68z M111,65.9c-0.8,0.9-0.6,2.4,0.4,3C112.2,67.9,112,66.6,111,65.9z"/>
		<path class="st0" d="M103.7,76.2c-0.2,0.8-0.5,1.6-0.7,2.4c-0.1,0.2-0.3,0.4-0.4,0.4c-1.9,0.3-3.6,0.9-5.5-0.3
			c-2.4-1.6-4-4.6-3.4-7.2c0.5-1.9,2.1-3,4.1-2.6C101.1,69.6,103.5,72.7,103.7,76.2z M101.1,75.3c0-1.6-1.1-3.2-2.5-3.6
			c-1.1-0.3-2.1,0.2-2.4,1.4c-0.4,1.5,0.5,3.3,1.9,4C99.7,77.9,101.1,77.1,101.1,75.3z"/>
		<path class="st0" d="M97.1,39.6c1.3,0,2.3,0.9,2.3,2.1c0,1.4-1.3,2.6-2.8,2.7c-1.3,0-2.3-0.9-2.3-2.1
			C94.3,40.9,95.6,39.7,97.1,39.6z"/>
		<path class="st0" d="M111,65.9c1,0.7,1.2,2,0.4,3C110.5,68.4,110.2,66.9,111,65.9z"/>
		<path d="M101.1,75.3c0,1.8-1.4,2.6-3,1.9c-1.4-0.7-2.3-2.5-1.9-4c0.3-1.1,1.2-1.7,2.4-1.4C100,72.1,101.1,73.7,101.1,75.3z
			 M98.8,74.8c-0.3-0.6-0.5-1.3-0.9-1.8s-0.8-0.3-0.9,0.2c0,0.6,0.1,1.3,0.4,1.9c0.1,0.3,0.5,0.4,0.8,0.6
			C98.4,75.5,98.6,75.2,98.8,74.8z"/>
		<path class="st0" d="M98.8,74.8c-0.2,0.4-0.4,0.7-0.6,0.9c-0.3-0.2-0.7-0.3-0.8-0.6c-0.2-0.6-0.4-1.2-0.4-1.9
			c0-0.5,0.5-0.7,0.9-0.2C98.3,73.6,98.5,74.2,98.8,74.8z"/>
		<g>
			<g>
				<path d="M119.1,48.4c1.9,0,1.9-3,0-3S117.2,48.4,119.1,48.4L119.1,48.4z"/>
			</g>
		</g>
		<g>
			<g>
				<path d="M116.1,49.1c1.9,0,1.9-3,0-3S114.2,49.1,116.1,49.1L116.1,49.1z"/>
			</g>
		</g>
		<g>
			<g>
				<path d="M119.7,49.5c1.9,0,1.9-3,0-3C117.8,46.5,117.8,49.5,119.7,49.5L119.7,49.5z"/>
			</g>
		</g>
	</g>
</g>
</svg>
