<?xml version="1.0" encoding="utf-8"?>
<!-- Generator: Adobe Illustrator 22.1.0, SVG Export Plug-In . SVG Version: 6.00 Build 0)  -->
<svg version="1.1" xmlns="http://www.w3.org/2000/svg" xmlns:xlink="http://www.w3.org/1999/xlink" x="0px" y="0px"
	 viewBox="0 0 250 250" style="enable-background:new 0 0 250 250;" xml:space="preserve">
<style type="text/css">
	.st0{fill:#262B33;}
	.st1{fill:none;stroke:#0D2636;stroke-width:2;stroke-miterlimit:10;}
</style>
<g id="Layer_1">
	<g id="XMLID_801_">
		<path id="XMLID_802_" class="st0" d="M90.5,95H64.6c-1.1,0-2.1,0.9-2.1,2.1v83.2c0,1.1,0.9,2.1,2.1,2.1h25.9
			c1.1,0,2.1-0.9,2.1-2.1V97.1C92.6,95.9,91.7,95,90.5,95z"/>
		<path id="XMLID_803_" class="st0" d="M77.6,53.6c-9.4,0-17.1,7.7-17.1,17.1c0,9.4,7.7,17.1,17.1,17.1c9.4,0,17.1-7.7,17.1-17.1
			C94.7,61.3,87,53.6,77.6,53.6z"/>
		<path id="XMLID_804_" class="st0" d="M156.4,92.9c-10.4,0-18.1,4.5-22.8,9.6v-5.4c0-1.1-0.9-2.1-2.1-2.1h-24.8
			c-1.1,0-2.1,0.9-2.1,2.1v83.2c0,1.1,0.9,2.1,2.1,2.1h25.8c1.1,0,2.1-0.9,2.1-2.1v-41.2c0-13.9,3.8-19.3,13.4-19.3
			c10.5,0,11.4,8.7,11.4,20v40.4c0,1.1,0.9,2.1,2.1,2.1h25.8c1.1,0,2.1-0.9,2.1-2.1v-45.6C189.5,114,185.6,92.9,156.4,92.9z"/>
	</g>
</g>
<g id="Layer_2">
	<circle class="st1" cx="125" cy="125" r="122.5"/>
</g>
</svg>
