<?xml version="1.0" encoding="utf-8"?>
<!-- Generator: Adobe Illustrator 22.1.0, SVG Export Plug-In . SVG Version: 6.00 Build 0)  -->
<svg version="1.1" id="Layer_1" xmlns="http://www.w3.org/2000/svg" xmlns:xlink="http://www.w3.org/1999/xlink" x="0px" y="0px"
	 viewBox="0 0 250 250" style="enable-background:new 0 0 250 250;" xml:space="preserve">
<style type="text/css">
	.st0{fill:#2F3542;}
	.st1{fill:#FF5E57;}
</style>
<g>
	<g>
		<path class="st0" d="M189.3,159.7c0,15.9,0,31.9,0,47.8c0,4.2-2.3,6.9-6.5,7.4c-2.7,0.4-6.2-2.1-6.9-4.8c-0.2-1.1-0.3-2.2-0.3-3.3
			c0-17.9,0-35.7,0-53.6c0-0.2,0-0.5,0-0.7c0-3.5-1.2-4.5-4.7-3.6c-0.5,0.1-1,0.8-1.2,1.3c-0.2,0.6-0.1,1.4-0.1,2.1
			c0,18.4,0,36.8,0,55.2c0,5.6-4.6,8.8-9.7,6.7c-2.7-1.1-3.9-3.3-3.9-6.2c0-2.4,0-4.8,0-7.3c0-28.8,0-57.7,0-86.5c0-1-0.1-2,0-3
			c0.1-1.6-0.7-2.3-2.2-2.3c-1.6,0-1.9,1.1-1.9,2.4c0,11,0,22.1-0.1,33.1c0,1.7-0.4,3.6-1.3,5c-1.1,1.7-3,2.9-5.3,2.2
			c-2.7-0.8-4.5-2.8-4.7-5.4c-0.1-1.3,0-2.6,0-3.9c0-12.1,0-24.2,0.1-36.3c0-3.8,0.8-7.4,2.5-10.8c2.2-4.4,6-6.5,10.9-6.5
			c8.9,0,17.8,0,26.7,0c3.4,0,6.7,0.1,10.1,0c7.5-0.1,11.9,4.9,12.9,11.3c0.6,3.6,0.9,7.2,0.9,10.9c0.1,11.6,0.1,23.1,0.1,34.7
			c0,3.2-2.7,6.1-5.6,6.1c-3.3,0-5.6-2.6-5.6-6.2c0-11.3,0-22.5,0-33.8c0-0.3,0-0.6,0-0.9c-0.1-1.5-1.1-2-2.4-2
			c-1.4,0-1.8,0.8-1.8,2.1c0,10.6,0,21.1,0,31.7C189.3,148.3,189.3,154,189.3,159.7z"/>
		<path class="st0" d="M82.6,167.9c-9,0-18,0-27.1,0c-2.5,0-2.9-0.4-2.9-2.9c0-8.8,1.2-17.4,3.5-25.8c2-7.5,5.1-14.5,10.1-20.6
			c1.8-2.3,3.8-3.4,6.9-3.3c7,0.2,14,0.1,21,0c1.5,0,2.6,0.6,3.5,1.6c3.8,3.9,6.6,8.5,8.7,13.6c4.3,10.7,6.2,21.8,6.3,33.3
			c0,0.2,0,0.5,0,0.7c0,3.2-0.3,3.4-3.4,3.4C100.4,167.9,91.5,167.9,82.6,167.9L82.6,167.9z"/>
		<path class="st1" d="M142.4,43.1c-0.4,7-2.8,12.3-8,16.1c-4.5,3.2-9,6.4-13.6,9.4c-0.7,0.5-2.1,0.6-2.8,0.2
			c-6.1-3.4-12.1-7.2-16.9-12.3c-5.7-6-6.5-16.1-1.9-22.5c3.7-5.1,11.4-7.2,16.9-1.8c0.3,0.3,0.6,0.6,0.9,0.8c2.1,2,2.3,2.1,4.5-0.1
			c2.9-2.9,6.2-4.5,10.5-3.7c3.8,0.7,8.5,5.2,9.3,9C141.8,40.1,142.2,41.9,142.4,43.1z M99.5,42.2c0.6,0.8,0.9,2,1.7,2.3
			c1.3,0.5,1.9-0.8,2.4-1.8c0.2-0.5,0.2-1,0.4-1.5c0.8-2.3,2.2-3.9,4.6-4.4c1.4-0.3,2.4-0.9,2.2-2.2c-0.2-1.3-1.5-1.8-2.9-1.6
			C103.3,33.6,100.2,38.2,99.5,42.2z"/>
		<path class="st0" d="M82.7,112c-5.7,0-11.4,0-17.2,0c-2.9,0-3.8-0.9-3.8-3.8c0-8.1,0-16.2,0-24.2c0-3.2,0.9-4,4-4.1
			c11.2,0,22.4,0,33.6,0c3.8,0,4.4,0.7,4.4,4.5c0,7.8,0,15.6,0,23.4c0,3.6-0.7,4.3-4.2,4.3C93.8,112,88.3,112,82.7,112L82.7,112z
			 M82.8,100.6L82.8,100.6c-3.2,0-6.5,0-9.7,0c-5.1,0-4.7-0.6-4.7,4.8c0,2,0.4,2.3,2.4,2.3c7.1,0,14.1,0,21.2,0
			c5.2,0,4.9,0.6,4.9-5.2c0-1.3-0.6-1.9-1.9-1.9C91,100.6,86.9,100.6,82.8,100.6z M90.5,95.2c2.5,0,4.5-2,4.3-4.5
			c-0.2-2.6-2.1-4.3-4.5-4.4c-2.1-0.1-4.6,2.6-4.5,4.6C85.9,93.2,88.2,95.3,90.5,95.2z M74.9,95.2c2.8,0.1,4.4-2.3,4.5-4.3
			c0.1-2.4-2.2-4.7-4.6-4.6c-2.1,0.1-4.2,2.4-4.2,4.7C70.6,93.4,72.5,95.3,74.9,95.2z"/>
		<path class="st0" d="M189.3,68.2c0.2,9.2-7.6,16.9-17,16.6c-9-0.2-16.4-7.4-16.3-16.9c0.1-9.9,7.8-16.6,17.1-16.5
			C182.3,51.5,189.5,59.1,189.3,68.2z"/>
		<path class="st0" d="M90.6,196.3c0.3-2.5-0.2-4.8-1.6-7.1c-1.6-2.5-1-5.1,0.3-7.7c0.6-1.2,1-2.7,1.2-4.1c0.2-1.5,0.1-3.1,0-4.6
			c0-1,0.4-1.6,1.4-1.6c2.6,0,5.2-0.1,7.8,0c0.5,0,1.2,0.9,1.4,1.6c0.2,0.7,0.1,1.6,0.1,2.5c0,2.4-0.1,4.7,1.4,6.9
			c1.9,2.9,1.2,5.8-0.7,8.6c-0.5,0.7-0.6,1.8-0.7,2.7c-0.1,2.1,0,4.2,0,6.4c0,1.1-0.5,1.4-1.7,1.3c-2.3-0.2-4.7-0.2-7-0.1
			c-1.4,0.1-2-0.1-2-1.6C90.7,198.4,90.6,197.3,90.6,196.3z M96.1,182.4c-2,0-3.6,1.5-3.6,3.5c-0.1,1.8,1.6,3.5,3.4,3.6
			c2,0,3.6-1.6,3.6-3.6C99.4,183.9,98,182.4,96.1,182.4z"/>
		<path class="st0" d="M74.4,201.1c-3.1,0-6,0-8.8,0c-1,0-1.6-0.3-1.6-1.4c0-1.1,0-2.2,0-3.4c0-2.4,0.1-4.7-1.5-6.9
			c-1.7-2.4-1.3-5.2,0.3-7.7c1-1.5,1.3-3,1.2-4.7c-0.1-1.4,0-2.7,0-4.1c0-1.4,0.7-1.9,1.9-1.9c2.4,0,4.7,0.1,7.1,0
			c1.4-0.1,1.7,0.6,1.7,1.8s0.1,2.5,0,3.7c-0.1,1.9,0.2,3.7,1.3,5.4c1.9,2.9,1.2,5.8-0.4,8.7c-0.4,0.8-0.8,1.7-0.8,2.6
			c-0.1,1.9,0,3.9-0.1,5.8C74.7,199.8,74.5,200.5,74.4,201.1z M69.4,182.3c-2,0-3.5,1.3-3.5,3.3c-0.1,2,1.4,3.7,3.3,3.8
			c1.8,0.1,3.6-1.8,3.6-3.6S71.3,182.4,69.4,182.3z"/>
		<path class="st0" d="M95.9,214.9c-3.1,0-6.2,0-9.4,0c-2,0-2.5-0.6-2.2-2.6c0.7-3.9,4.6-8,8.6-8.9c4.6-1.1,9.8,0.6,12.1,4.1
			c1,1.5,1.9,3.3,2.3,5c0.5,1.8-0.1,2.3-2,2.3C102.3,214.9,99.1,214.9,95.9,214.9L95.9,214.9z"/>
		<path class="st0" d="M69.4,214.9c-3.1,0-6.2,0-9.4,0c-2.1,0-2.7-0.6-2.2-2.6c1.1-4.4,3.9-7.5,8.1-8.7s8.4-0.7,11.5,2.9
			c1.4,1.6,2.5,3.7,3.3,5.7s-0.1,2.8-2.2,2.8C75.5,214.9,72.5,214.9,69.4,214.9L69.4,214.9z"/>
		<path class="st0" d="M53.2,126.9c-1.4-0.3-2.5,0.3-3.3,1.6c-1.3,2-3.2,3.5-5.7,3.7c-3.9,0.3-7.1-2.2-8-6.3c-0.7-2.8,1.5-6.9,4.3-8
			c3.6-1.4,7.7-0.2,9.5,3.1c0.7,1.3,1.5,1.6,2.8,1.6c1.2-0.1,2.5,0,3.7,0c1.1,0,1.5,0.5,1.1,1.6C56.9,126.3,55.8,127.1,53.2,126.9z
			 M46.8,124.9c0-2.1-1.4-3.4-3.4-3.4c-1.8,0-3.1,1.5-3,3.4c0.1,1.7,1.7,3.3,3.3,3.3C45.3,128.1,46.9,126.6,46.8,124.9z"/>
		<path class="st0" d="M111.1,122.8c0.6,0,1.2,0,1.8,0c1.1,0.1,1.8-0.2,2.3-1.4c1.6-3.2,5.2-4.5,8.9-3.5c2.9,0.8,5.2,4.1,5.1,7.3
			c-0.1,3.2-2.3,5.7-6.1,6.9c-2.1,0.7-5.5-0.5-7-2.7c-1.2-1.7-2.4-3.1-4.9-2.5c-0.7,0.2-1.9-0.2-2.3-0.8c-0.7-0.8-0.9-1.9-1.3-2.9
			c1.2-0.2,2.3-0.5,3.5-0.7C111.1,122.6,111.1,122.7,111.1,122.8z M118.5,124.8c-0.1,1.7,1.4,3.3,3.2,3.4c1.7,0.1,3.3-1.5,3.4-3.4
			c0.1-1.8-1.4-3.3-3.1-3.4C120,121.5,118.5,122.9,118.5,124.8z"/>
		<path class="st0" d="M42.9,166.1c5.3,0.1,9,2.7,10,7c0.1,0.6,0.4,1.4,0.1,1.9c-0.4,0.8-1.1,1.8-1.8,2c-0.6,0.2-1.7-0.5-2.3-1.1
			c-0.9-1-1.2-2.4-2.1-3.4c-2-2.3-6-1.7-7.5,1c-0.4,0.7-0.6,1.6-1.1,2.2c-0.6,0.6-1.6,1.5-2.3,1.4c-1.3-0.1-2.3-1.2-2.2-2.6
			C34.4,169.8,38.3,166.3,42.9,166.1z"/>
		<path class="st0" d="M131.4,174.4c0,1.4-0.7,2.4-2.1,2.7c-1.3,0.3-2-0.6-2.5-1.7c-1.5-3.7-3.5-5.1-6.5-4c-1.2,0.4-2.1,1.5-3,2.5
			c-0.4,0.4-0.5,1.2-0.8,1.7c-0.6,1.1-1.5,1.9-2.9,1.4s-1.8-1.7-1.5-3c0.9-5.3,6.6-9,12-7.6C128,167.3,131.5,171.1,131.4,174.4z"/>
		<path class="st0" d="M121.7,153.2c-0.1,0-0.1,0-0.2,0c-4.9,0-4.4,0.8-4.4-4.5c0-3.8,0-3.8,3.7-3.8c1.2,0,2.4,0,3.5,0
			c1.4,0,2,0.7,2,2c0,1.5,0,2.9,0,4.4s-0.7,2-2.1,1.9C123.5,153.2,122.6,153.2,121.7,153.2L121.7,153.2z"/>
		<path class="st0" d="M43.4,153.2c-4.4-0.1-4.4-0.1-4.5-4.4c0-0.3,0-0.6,0-0.9c0-2.8,0.2-3,3-3.1c1.4,0,2.7,0.1,4.1,0
			c1.6-0.1,2.3,0.6,2.3,2.1s-0.1,3.1,0,4.6c0,1.1-0.5,1.6-1.6,1.6C45.5,153.2,44.4,153.2,43.4,153.2z"/>
		<path class="st0" d="M121.7,155.6c5.5,0,4.8-0.3,4.8,4.8c0,3.4-0.2,3.6-3.6,3.5c-1.3,0-2.6-0.1-3.9,0s-1.8-0.6-1.8-1.8
			c0-1.7-0.1-3.4,0-5.1c0-0.5,0.8-1.3,1.3-1.4C119.5,155.4,120.6,155.6,121.7,155.6z"/>
		<path class="st0" d="M43.5,163.9c-4.5,0-4.5,0-4.6-4.5c-0.1-4.3-0.1-3.8,3.8-3.9c1.3,0,2.6,0,3.9,0c1.1,0,1.6,0.5,1.6,1.6
			c0,1.5,0,3.1,0,4.6s-0.6,2.3-2.2,2.2C45.1,163.9,44.3,163.9,43.5,163.9z"/>
		<path class="st0" d="M121.8,134.6c4.8,0,4.6-0.5,4.6,4.7c0,0.5,0,1.1,0,1.6c0,1.2-0.6,1.8-1.9,1.8c-1.9,0-3.8,0-5.6,0
			c-1.3,0-1.8-0.6-1.8-1.8c0-1.5,0-2.9,0-4.4c0-1.3,0.6-2,1.9-1.9C120,134.6,120.9,134.6,121.8,134.6z"/>
		<path class="st0" d="M43.5,134.6c5,0.1,4.6-0.5,4.6,4.7c0,0.6,0,1.2,0,1.8c0,1.1-0.5,1.6-1.6,1.6c-2,0-4,0-6,0
			c-1.2,0-1.7-0.7-1.7-1.8c0-1.4,0-2.7,0-4.1c0-1.6,0.6-2.3,2.2-2.2C41.9,134.6,42.7,134.6,43.5,134.6z"/>
		<path class="st0" d="M106.2,95.9c0-1.8-0.1-3.5,0-5.3c0.1-0.8,0.6-2.1,0.9-2.1c1.1,0,2.3,0.3,3.2,0.9c0.5,0.3,0.7,1.3,0.7,2.1
			c0.1,3,0.1,6,0,9c0,0.9-0.4,2-1,2.5c-0.8,0.6-2,0.8-2.9,0.6c-0.4,0-0.8-1.4-0.8-2.2C106.1,99.5,106.2,97.7,106.2,95.9L106.2,95.9z
			"/>
		<path class="st0" d="M59.1,95.9c0,1.8,0.1,3.5,0,5.3c-0.1,0.8-0.7,2.3-1,2.2c-1.1-0.1-2.2-0.6-3.3-1.1c-0.2-0.1-0.4-0.5-0.4-0.8
			c0-3.7-0.1-7.4,0-11.1c0.1-1.5,1.2-2.2,2.7-2.2c1.3,0,2,0.5,2,1.8C59.1,92.1,59.1,94,59.1,95.9L59.1,95.9z"/>
		<path class="st0" d="M90.3,93.4C89,93.3,88,92.1,88,90.7c0.1-1.4,1-2.3,2.6-2.1c1.5,0.1,2.2,1,2.2,2.5
			C92.9,92.3,91.5,93.4,90.3,93.4z"/>
		<path class="st0" d="M75,88.6c1.6,0,2.3,0.8,2.2,2.5c0,1.5-1,2.4-2.5,2.4c-1.2,0-2.4-1.4-2.4-2.6C72.5,89.5,73.6,88.5,75,88.6z"/>
	</g>
</g>
</svg>
