<?xml version="1.0" encoding="utf-8"?>
<!-- Generator: Adobe Illustrator 22.1.0, SVG Export Plug-In . SVG Version: 6.00 Build 0)  -->
<svg version="1.1" xmlns="http://www.w3.org/2000/svg" xmlns:xlink="http://www.w3.org/1999/xlink" x="0px" y="0px"
	 viewBox="0 0 250 250" style="enable-background:new 0 0 250 250;" xml:space="preserve">
<style type="text/css">
	.st0{fill:#262B33;}
	.st1{fill:none;stroke:#0D2636;stroke-width:2;stroke-miterlimit:10;}
</style>
<g id="Layer_1">
	<g>
		<path class="st0" d="M120.5,131.2c2.7,1.2,7.2,1.2,9.9,0.1l70.1-30v-9.5c0-3.5-2.9-6.4-6.4-6.4H55.9c-3.5,0-6.4,2.9-6.4,6.4v8.2
			L120.5,131.2z"/>
		<path class="st0" d="M131.4,133.6c-1.7,0.7-3.8,1.1-5.9,1.1c-2.2,0-4.4-0.4-6.1-1.1l-69.9-30.9v55.6c0,3.5,2.9,6.4,6.4,6.4h138.2
			c3.5,0,6.4-2.9,6.4-6.4V104L131.4,133.6z"/>
	</g>
</g>
<g id="Layer_2">
	<circle class="st1" cx="125" cy="125" r="122.5"/>
</g>
</svg>
