<?xml version="1.0" encoding="utf-8"?>
<!-- Generator: Adobe Illustrator 22.1.0, SVG Export Plug-In . SVG Version: 6.00 Build 0)  -->
<svg version="1.1" xmlns="http://www.w3.org/2000/svg" xmlns:xlink="http://www.w3.org/1999/xlink" x="0px" y="0px"
	 viewBox="0 0 250 250" style="enable-background:new 0 0 250 250;" xml:space="preserve">
<style type="text/css">
	.st0{fill:#2F3542;}
	.st1{fill:none;stroke:#2F3542;stroke-miterlimit:10;}
</style>
<g id="Layer_1">
	<g>
		<path class="st0" d="M64.4,180.2c-0.9-0.6-1.1-0.8-1-1.3c0.1-0.5,0-0.6-1.4-0.8c-2.5-0.5-3.8-2-4-4.5c-0.1-1.5,0.2-1.5,1.4,0
			c1.3,1.7,5.7,3.6,7.3,3.1c0.6-0.2,7.6-7.6,8.9-9.4c2.4-3.3,4.1-6,5.4-8.1c0.2-0.3,0.5-0.9,0.8-1.2c0.2-0.3,0.7-1.1,1-1.7
			c0.3-0.6,0.7-1.3,0.8-1.5c1.7-2.9,3.9-8.4,3.5-8.8c-0.3-0.3-4.7-0.1-8.3,0.4c-3.2,0.5-3.4,0.4-3.4-0.2c-0.1-2.2,1-8.6,2.3-13.9
			c0.5-1.9,1-4.2,1.1-5c0.1-0.8,0.4-2.1,0.7-2.8c1.6-4.7,1.5-6.2-0.2-4.1c-5.3,6.5-9.6,7.8-16.1,5c-1-0.5-2-0.8-2.1-0.8
			c-0.7,0-6.6-5.6-7.9-7.5c-1.8-2.7-6-1.5-6.2,1.7l-0.1,1.7l1,0.7c1.9,1.3,2.3,2.9,1.3,5.3c-0.4,1.1,0.8,3.5,3.3,6.2
			c1.6,1.8,1.6,2.8,0.1,3.5c-1.5,0.7-3.4-1.3-5.6-5.8c-0.7-1.4-1-1.8-1.8-2.2c-2.3-1.2-3.1-4.8-1.5-6.5c0.6-0.7,1.1-5.4,0.6-5.7
			c-0.9-0.6-0.3-3.4,1-4.2c0.4-0.2,0.9-0.7,1.1-1c0.2-0.3,0.7-0.6,1.1-0.7c0.5-0.1,0.9-0.4,1.1-0.7c0.5-0.8,2-1.5,2.6-1.2
			c0.8,0.4,0.7,1.3-0.4,2.3c-1,0.9-1,0.8,0.7,2.8c0.8,0.9,1.2,1.2,2.2,1.4c0.7,0.2,1.6,0.5,2.2,0.8c3.9,1.8,11,2.5,14.6,1.4
			c0.6-0.2,1.9-0.5,2.8-0.8c1-0.3,1.8-0.6,2-0.7c0.1-0.1,0.4-0.2,0.6-0.2s1.3-0.5,2.5-1.1c3.4-1.7,4.1-2.4,2.7-2.4
			c-0.7,0-2.6-0.3-6.9-1c-9.3-1.6-12.3-10.3-6.4-18.6c0.4-0.6,0.9-1.5,1.1-2c0.3-0.8,1.7-3.4,2.9-5.3c0.7-1.1,1.9-3.6,1.9-3.8
			c0-0.3-0.6-0.5-3.2-1.1c-3.1-0.7-3.7-2.2-0.8-2.2c0.2,0,0.8-0.2,1.4-0.5c0.6-0.3,2-0.7,3.2-0.9c2-0.4,2.4-0.6,1.6-0.9
			c-1.9-0.6-2.2-3-0.6-4c2.2-1.4,19.9-2.9,25.5-2.2c5.2,0.7,6.4,1.3,7.6,4.4c0.3,0.7,0.7,1.8,1,2.4c0.8,1.8,1.1,2.6,1.6,4.8
			c0.7,3.1,1,3.8,1.8,3.8c1.6,0,2.4,1.8,1.7,4.2c-0.2,0.6-0.1,1,0.2,1.8c0.2,0.6,0.5,1.2,0.5,1.4s0.4,1.2,0.7,2.2
			c0.4,1,1,3.1,1.5,4.6c0.9,2.7,2.1,6.2,2.8,7.7c1.8,4.1,15.4,6.7,21,4c0.6-0.3,1.3-0.6,1.6-0.7c1.4-0.4,3.4-2,4.7-3.9
			c2.2-3.1,2.6-3.2,6.5-2.5c1.5,0.3,3.3,2.9,2.6,3.7c-0.6,0.6-0.6,1,0,2.1c0.3,0.7,3.7,10.4,3.7,10.7c0,0.2,1.1,0,1.3-0.2
			c0.9-1.1,4.4-2.3,4.7-1.5c0.1,0.2,0.3,0.3,0.4,0.3c0.3,0,1.9,1.4,1.9,1.7c0,0.1-0.1,0.3-0.2,0.6c-0.5,1-0.1,1.1,1.4,0.3
			c3.4-1.8,11.4-5.7,14.8-7.3c1.8-0.8,2.6-0.7,2.4,0.4c-0.2,0.8-0.5,1.1-3.1,2.5c-3.7,1.9-5.2,2.8-6.3,3.5c-0.6,0.4-1.4,0.9-1.7,1.1
			c-0.7,0.4-1.4,1.7-2.1,3.8c-0.9,2.5-0.6,3,1.4,2.6c3.3-0.8,4.5,0.1,5.6,4.4c0.5,1.8,1.3,1.6,4.1-1l1.2-1.1l0.7,0.6
			c0.4,0.3,0.8,0.8,0.9,1c0.1,0.2,0.3,0.7,0.6,1c1,1.4,0.3,2.2-2.5,3c-3,0.9-3.6,0.7-4.9-1.2c-2.4-3.6-4.2-4.6-3.7-1.9
			c0.6,3,0.4,3.5-0.9,2.1c-1.7-1.7-1.7-1.4-0.5,2.5c0.5,1.6,1.1,3.4,1.2,4c0.3,1.3,1.3,3.3,2.1,4.2c1.9,2.2,6.4,10.4,7.4,13.5
			c2,6,1.1,13.4-1.3,10.9c-0.6-0.6-1.8-1.8-2.7-2.5l-1.6-1.4l-0.4-1.8c-0.2-1-0.5-2.4-0.6-3.2c-0.1-0.8-0.4-2-0.6-2.6
			c-0.2-0.7-0.6-2-0.8-3c-0.4-1.7-1.2-4.2-2.4-7.1c-1-2.4-1.3-2.3-0.7,0.2c0.2,0.7,0.4,1.9,0.6,2.7c0.1,0.8,0.4,2.2,0.6,3.1
			c0.2,0.9,0.4,2.1,0.5,2.6c0.8,3.9,0.5,6.6-0.9,9.5c-0.5,1-1,2.1-1.2,2.6c-0.5,1.2-0.6,1.1-3.5-1.9l-2.6-2.7l-0.3-2.5
			c-0.2-1.5-0.3-4.3-0.3-6.9c0-4.5-0.2-5.4-1-4.2c-0.1,0.1-0.6,0.3-1.2,0.5c-0.6,0.2-1.5,0.5-2.1,0.8c-1.9,0.8-2.5,0.9-3.5,0.2
			c-0.9-0.6-3.2-1.6-3.6-1.6c-0.2,0-0.2,0.2-0.1,0.6c0.4,1.5,0,2.5-1.4,2.9c-0.9,0.3-0.9,0.4-0.3,1.1c1.4,1.8-1.4,3.5-2.9,1.7
			c-0.8-0.9-0.4-2.6,0.6-2.6c0.7,0,1-0.6,0.8-1.2c-0.7-1.8,0.6-3.3,2.6-3c1.4,0.2,2.6-1.4,1.7-2.3c-0.4-0.5-0.3-0.9,0.3-0.9
			c1,0,1.4-1.7,0.7-2.7c-0.5-0.7-0.5-1.3,0-1.3c0.9,0,1.1-1.8,0.3-2.9c-0.2-0.3-0.1-0.5,0.5-1.1c0.9-0.8,1-1.6,0.4-2.5
			c-0.6-0.7-0.6-1.1,0.1-1.7c0.8-0.8,0.5-2.3-0.6-2.8c-0.4-0.2-0.4-0.2,0-0.8c0.6-0.8,0.6-1.5-0.1-2.4c-0.6-0.7-0.6-0.7-0.1-1
			c0.9-0.6-0.1-1.9-1.2-1.4c-0.6,0.3-0.7,0.9-0.2,1c0.5,0.2,0.4,0.6-0.3,1.4c-0.8,0.8-0.9,2-0.2,2.4c0.5,0.3,0.6,0.8,0.2,1
			c-0.6,0.2-0.3,2,0.3,2.7c0.7,0.7,0.8,1.1,0.2,1.3c-0.9,0.3-1.1,1.7-0.5,2.6c0.5,0.6,0.6,1,0.1,1c-1.1,0-1.7,2.1-0.9,2.9l0.5,0.5
			l-0.7,0.7c-0.8,0.7-1.1,2.3-0.5,2.6c0.4,0.3,0.2,0.5-0.5,0.9c-0.7,0.3-0.9,0.6-1,1.8c-0.1,0.5-0.1,0.5-1.3-0.1
			c-0.7-0.3-2.5-1.2-4.2-1.9c-1.6-0.7-3.7-1.6-4.6-2c-0.9-0.4-2.5-1.1-3.6-1.5c-1.1-0.5-2.6-1.1-3.3-1.4c-0.7-0.3-1.8-0.8-2.4-1
			c-1.7-0.6-1.9-0.8-1.6-1.8c0.5-2.1,1-3.6,2.7-8.3c0.3-1,0.9-2.5,1.2-3.4c0.3-0.9,0.8-2.3,1.1-3.2c0.3-0.8,0.7-1.9,0.8-2.3
			c0.3-1,0.2-1,2.6-0.3c1.2,0.4,2.2,0.7,2.3,0.7c0.1,0,0.3-0.6,0.5-1.3c0.4-1.4,1.9-6.1,3-9.3c1-3,1-3.4,0.4-3.6
			c-1.2-0.3-1.2-0.3-3.1,4.1c-1,2.4-4.1,7.1-5.3,8c-4.3,3.5-9,3.3-13.3-0.5c-2-1.8-2-1.9,0.5,5.4c0.2,0.7,0.5,1.5,0.7,1.7
			c0.1,0.2,0.7,1.7,1.2,3.4c0.6,1.7,1.3,3.6,1.5,4.2c0.6,1.5,1.2,3.3,1.2,3.9c0,0.2,0.1,0.5,0.3,0.7c0.3,0.3,1.7,5.5,1.6,5.6
			c-0.1,0.1-2.2,0.5-4.4,0.9c-2.8,0.4-2.8,0.4-4.1,3.6c-2.4,5.9,0.6,10.8,7.2,11.5c1.2,0.1,1.6,0.1,4.9-0.8c0.4-0.1,1.4-0.5,2.1-0.9
			c0.7-0.4,1.6-0.9,2.1-1.1c1.6-0.8,3.8-2.4,4.8-3.3c1.1-1.1,1.7-1.1,2.3-0.3c0.5,0.7,0.4,1.2-0.5,1.8c-1.1,0.7-1.2,1.2-0.8,2
			c1,1.9-0.5,5.1-2.9,6.6c-1.9,1.2-2,0.7-0.6-2.1c2.5-4.8,2.6-6.8,0.3-3.9c-0.6,0.8-1.5,1.7-2,2.1c-0.5,0.4-1.8,1.4-2.8,2.3
			c-2.5,2.1-5.1,3.7-7.1,4.5c-0.6,0.2-1.3,0.5-1.5,0.6c-13.3,6.1-24.5-2.1-21.4-15.6c1-4.5,0.5-5.3-1.8-2.5c-1.6,2-5.7,5.9-7.9,7.7
			c-0.6,0.5-1.6,1.4-2.3,2c-1.5,1.3-5.3,4.3-7.2,5.4c-0.7,0.5-2,1.3-2.8,1.9c-0.8,0.6-1.7,1.1-1.9,1.2c-1.5,0.9-4.5,2.8-5,3.2
			c-0.7,0.5-2,1.3-5.7,3.2c-1.1,0.6-2.5,1.3-3.2,1.7c-0.7,0.4-1.7,0.8-2.4,1.1c-1.1,0.4-1.3,0.6-1.9,1.8
			C65.9,181.1,65.8,181.1,64.4,180.2L64.4,180.2z M186.6,168.9c0.3-1.7,0.2-3-0.1-2.5c-0.1,0.2-0.5,0.8-0.9,1.4l-0.6,1l0.5,0.7
			C186.1,170.2,186.4,170.1,186.6,168.9L186.6,168.9z M174.9,167.3c1.5-3.3,1.9-5.6,1.4-8.4c-1.7-10.1-2.1-12-3.2-14.6
			c-0.8-2-1.1-2.4-1.5-2c-0.7,0.7-1.4,0.2-1-0.8c0.3-0.8,0.5-0.9,0.8-0.3c0.9,1.6,0.4-1-0.7-3.5c-1.2-2.8-1.3-2.6-1.2,2.1
			c0.1,2.8,0.1,4.6-0.1,5.8c-0.4,2.3-0.5,9.6-0.3,14.3l0.2,3.8l2.3,2.5C174.4,169.1,174.2,169,174.9,167.3L174.9,167.3z
			 M173.4,164.4c0-0.7,0.5-1.4,0.8-1.2c0.3,0.2,0.3,1.1,0,1.4C173.8,165.1,173.4,165,173.4,164.4L173.4,164.4z M170.6,161.9
			c0-1.1,0.6-1.6,0.9-0.8c0.3,0.8,0.3,1.2-0.1,1.3C170.7,162.6,170.6,162.5,170.6,161.9L170.6,161.9z M173.1,160.1
			c-0.2-0.3,0.1-1.3,0.6-1.7c0.5-0.5,0.7-0.3,0.5,0.6C174.1,159.8,173.3,160.5,173.1,160.1L173.1,160.1z M170.6,155.3
			c0-0.8,0.6-1.6,1.1-1.6c0.5,0,0.6,1.3,0.2,1.7C171.1,156,170.6,156,170.6,155.3L170.6,155.3z M173.7,152.1
			c-0.1-0.6,0.2-1.2,0.6-1.2c0.3,0,0.1,1.6-0.2,1.7C174,152.6,173.8,152.4,173.7,152.1L173.7,152.1z M170.8,148.3
			c0-1.4,0.9-2,1.3-0.9c0.3,0.8-0.2,1.7-0.9,1.7C170.9,149.1,170.8,149,170.8,148.3L170.8,148.3z M185.9,166.2
			c0.7-1.3,0.9-2,0.9-2.8c0-1.7-0.5-1.4-1.3,0.8c-0.3,0.7-0.7,1.6-1,2c-0.6,0.8-0.6,1.2-0.3,1.6C184.7,168.3,185.1,168,185.9,166.2
			L185.9,166.2z M184.2,164.8c0.9-2.1,0.7-2.4-0.5-0.5c-1.2,1.8-1.2,2-0.6,2C183.4,166.2,183.7,165.9,184.2,164.8L184.2,164.8z
			 M183.3,163.6c0.5-1,1.1-2.3,1.3-3c0.2-0.6,0.5-1.3,0.6-1.5c0.3-0.3,0.1-1.2-0.3-1.2c-0.2,0-0.4,0.4-0.6,0.9
			c-0.2,0.5-0.9,2-1.7,3.3c-1.6,2.8-1.7,3.3-0.7,3.3C182.3,165.4,182.7,164.8,183.3,163.6L183.3,163.6z M182,161.9
			c0.3-0.6,0.7-1.8,1-2.7c0.3-0.9,0.7-2,0.9-2.4c0.4-0.8,0.2-1.8-0.4-1.9c-0.2,0-0.5,0.3-0.7,1.2c-0.2,0.7-0.8,2.1-1.3,3
			c-0.8,1.5-0.9,1.9-0.7,2.7C181,163.5,181.3,163.5,182,161.9L182,161.9z M186.4,160.6c0-0.4-0.3-0.4-0.5-0.1
			c-0.2,0.3,0.1,0.7,0.3,0.5C186.3,161,186.4,160.8,186.4,160.6L186.4,160.6z M181,158.1c1.6-4.4,1.9-6,0.8-6.4
			c-0.3-0.1-0.4-0.1-1.3,2.6c-0.8,2.5-0.9,2.6-0.6,3.7C180.3,159.2,180.6,159.2,181,158.1L181,158.1z M154.4,155.8
			c0.2-1-0.2-1.5-1.1-1.3c-1.6,0.4-1.4,2.2,0.3,2C154.1,156.5,154.3,156.4,154.4,155.8L154.4,155.8z M180,153.2
			c0.2-0.8,0.5-1.9,0.6-2.3c0.2-0.6,0.2-0.9,0-1.4c-0.4-0.9-0.9-0.7-1.1,0.4c-0.1,0.5-0.3,1.4-0.5,2.1c-0.3,1-0.3,1.4-0.1,2
			C179.3,155.2,179.6,155,180,153.2L180,153.2z M155.8,152.6c0.6-0.6,0.7-1,0.3-1.7c-0.4-0.8-2.4,0-2.4,1
			C153.7,153.1,154.9,153.5,155.8,152.6L155.8,152.6z M178.9,149.3l0.5-2l-0.5-0.5c-0.6-0.6-0.7-0.5-1,1.1c-0.4,1.6-0.4,2.4-0.1,2.9
			C178.2,151.7,178.4,151.4,178.9,149.3L178.9,149.3z M177.4,146.7c0.2-1.6,0.1-2.2-0.4-2.2c-0.5,0-0.8,2.9-0.4,3.6
			C177,148.6,177.3,148,177.4,146.7L177.4,146.7z M101.2,144.8c0.3-1.3,0-1.5-1.4-1.1c-0.8,0.2-2.6,0.3-5.8,0.3
			c-4.5,0-4.6,0-4.6,0.4c0,0.6,5.6,1.4,9.6,1.3l2,0L101.2,144.8L101.2,144.8z M175.9,144.2c0.1-1.3,0-1.8-0.4-1.8
			c-0.4,0-0.6,1.5-0.3,2.3C175.5,145.5,175.8,145.3,175.9,144.2L175.9,144.2z M174.5,142c-0.1-1.2-0.6-2.3-1-2.4
			c-0.2-0.1-0.2,0.2-0.1,1C173.7,142.7,174.7,144,174.5,142L174.5,142z M99.8,142.4c1.3-0.1,1.4-0.2,1.5-0.7l0.1-0.6l-2.8,0.1
			c-1.8,0.1-3.7,0-5.4-0.3c-3.7-0.5-3.7-0.5-3.8,0.1c-0.1,0.8,0.3,1.2,1.2,1c0.4-0.1,1.5,0,2.4,0.2
			C94.7,142.5,97.4,142.6,99.8,142.4L99.8,142.4z M99.3,139l2.2,0l0.3-1c0.3-1.3,0.2-1.4-1.8-1c-1.2,0.2-7.5,0.5-10.1,0.5
			c-2.2,0-0.1,1.1,2.5,1.3c1.6,0.1,3.1,0.3,3.2,0.3c0.2,0,0.6,0,0.9,0C96.8,139.1,98,139.1,99.3,139L99.3,139z M51.9,134.8
			c-0.5-0.4-0.8-0.4-0.8,0c0,0.4,0.7,0.8,1,0.5C52.2,135.2,52.2,135,51.9,134.8z M95.9,135c1.7-0.2,4-0.4,5-0.5
			c1.6-0.1,1.8-0.2,1.9-0.6c0.3-1.3-1.5-1.4-6.5-0.5c-1.7,0.3-4,0.6-5,0.6l-1.8,0v0.7v0.7l1.6,0C92,135.3,94.2,135.2,95.9,135
			L95.9,135z M52.6,134.3c0-0.2-0.2-0.3-0.4-0.3c-0.3,0-0.3,0.1-0.1,0.3c0.2,0.2,0.3,0.3,0.4,0.3C52.6,134.7,52.6,134.5,52.6,134.3z
			 M92.8,131.5c0.8-0.2,2.7-0.3,4.2-0.3c4.3,0,6.8-0.4,7.2-1.1c0.4-0.8,0.2-1.4-0.5-1.2c-2.7,0.8-5.7,1-9.9,0.5
			c-5.1-0.5-5.4-0.4-4.4,2.2C89.6,131.9,90.9,131.9,92.8,131.5L92.8,131.5z M170.1,129.7c0.9-1.4,2-3.9,2-4.4c0-1-0.7-0.4-1.3,1
			c-0.4,0.8-1,2.1-1.3,2.8C168.5,131.1,168.9,131.5,170.1,129.7L170.1,129.7z M169.7,125.7c0-0.6-0.5,0-1.1,1.5
			c-0.9,2.1-1.1,2.4-0.9,2.6C167.8,129.9,169.7,126.1,169.7,125.7L169.7,125.7z M164.3,128.2c0.1-0.3,0.5-1.1,0.8-1.7
			c0.5-0.9,0.6-1.6,0.2-1.2c-0.3,0.3-1.7,2.9-1.7,3.2C163.6,129,164,128.8,164.3,128.2L164.3,128.2z M47.8,127.2
			c0.8-0.6,1.5-2.5,1.2-3.4c-0.1-0.4-0.2-0.8-0.2-0.9c-0.4-1.9-3.4-2.1-4.6-0.3C42.3,125.5,45.1,129.2,47.8,127.2L47.8,127.2z
			 M45.9,125.2c-0.1-0.2-0.3-0.8-0.3-1.4c-0.1-1.1-0.1-1.1,0.1-0.3c0.3,0.9,0.6,1.1,1.6,0.7c1.2-0.5,1.3-0.1,0.2,0.6
			C46.2,125.6,46.2,125.6,45.9,125.2L45.9,125.2z M101,127c0.7-0.1,1.9-0.3,2.5-0.3c2.1-0.3,2.2-0.3,2.5-1.1
			c0.2-0.4,0.3-0.8,0.3-0.9c0-0.2-1.3-0.1-1.8,0.2c-1.9,1-12,0.8-14.8-0.3c-1.3-0.5-1.5-0.3-1.2,1c0.3,1.2,0.1,1.1,3.1,1.5
			C94.5,127.4,98.3,127.4,101,127L101,127z M157.2,126.2c0.1-0.3,0.5-0.7,0.8-0.9c0.5-0.2,0.7-0.7,0.3-0.7c-0.6,0-2.3,1.6-2.1,2
			C156.5,127,156.9,126.8,157.2,126.2L157.2,126.2z M156,125.6c0.3-0.3,0.9-0.7,1.3-1c0.7-0.4,1-0.9,0.7-0.9c-0.5,0-3,2-3,2.3
			C155,126.3,155.5,126.1,156,125.6L156,125.6z M160.4,125.7c-0.1-0.1-0.2-0.1-0.3-0.1c-0.1,0.1-0.1,0.2-0.1,0.3
			c0.1,0.1,0.2,0.1,0.3,0.1C160.4,125.9,160.5,125.8,160.4,125.7z M155.7,124.4c1.5-1.1,1.9-1.7,1.3-1.7c-0.2,0-3.6,2.6-3.7,2.9
			C153.1,126.1,154.2,125.5,155.7,124.4L155.7,124.4z M152.6,124.8c0.3-0.2,1.1-0.9,1.8-1.4c1.7-1.3,0.9-1.3-1.1,0
			c-0.9,0.6-1.7,1.1-1.7,1.1C150.9,125,151.9,125.3,152.6,124.8L152.6,124.8z M159.8,124.8c0.1-0.5-0.3-0.5-0.6,0.1
			c-0.2,0.4-0.2,0.4,0.2,0.4C159.5,125.2,159.8,125,159.8,124.8L159.8,124.8z M162.9,125c0.4-0.5,0.5-1.5,0.2-1.5
			c-0.4,0-0.8,0.7-0.8,1.3C162.3,125.3,162.5,125.4,162.9,125z M103.1,123.6c0.9-0.2,2.3-0.5,3.2-0.7l1.5-0.4l0.9-1.6
			c1-1.7,1.1-2.2,0.8-2.2c-0.5,0-3.7,1.1-4.3,1.5c-0.4,0.2-0.9,0.4-1,0.4s-0.6,0.2-0.9,0.4c-0.8,0.5-11.6,0.6-13.3,0
			c-0.6-0.2-1.2-0.4-1.4-0.4c-0.8-0.2-0.5,1.8,0.4,2.3C90.3,123.7,99.9,124.2,103.1,123.6L103.1,123.6z M148.9,123.1
			c0.6-0.6,0.7-0.8,1-3.5c0.2-1.6,0.5-3.7,0.7-4.8c0.3-2,0.8-5.6,0.9-5.8c0-0.1-0.1-0.1-0.3-0.2c-0.5-0.1-0.8,0.7-2.3,6
			c-0.3,1-0.9,3-1.4,4.5c-0.5,1.5-0.9,3-0.9,3.3C146.5,123.8,147.8,124.1,148.9,123.1L148.9,123.1z M171.6,123.1
			c0.4-0.2,1.2-0.7,1.9-1.1c2-1.4,6.4-3.9,7.1-4.2c1-0.4,5.6-3.2,5.6-3.4c0-0.3,0-0.4-3.2,1.1c-1.7,0.8-5.1,2.5-5.5,2.7
			c-0.1,0.1-0.9,0.4-1.8,0.8c-0.8,0.3-2.2,1-3.1,1.5c-0.8,0.5-2.2,1.2-2.9,1.5c-1.7,0.7-1.8,0.9-0.7,1.3
			C169.9,123.7,170.5,123.6,171.6,123.1L171.6,123.1z M153.4,122.6c1-0.7,1.3-1.3,0.6-1.3c-0.5,0-2.2,1.3-2.2,1.7
			C151.7,123.5,152.3,123.3,153.4,122.6L153.4,122.6z M158.2,121.3c0.6-0.6,0.3-2-0.8-5.2c-0.5-1.4-1.3-3.6-1.7-4.8
			c-0.9-2.8-1.9-3.8-2.3-2.2c-0.6,2.6-1.6,11-1.3,11.3c0.1,0.1,0.4,0,0.8-0.3l0.6-0.5l0.7,0.5c0.7,0.5,2.9,1.5,3.4,1.5
			C157.7,121.7,158,121.5,158.2,121.3L158.2,121.3z M102.8,119.2c0.9-0.3,2.5-0.8,3.6-1.1c1.1-0.3,2.2-0.7,2.5-0.8
			c0.3-0.1,0.9-0.2,1.3-0.3c0.8-0.2,2.2-1.8,2.2-2.5c0-0.4-0.8-0.6-1.2-0.2c-0.3,0.3-6.6,2.4-8.5,2.8c-3.1,0.7-11.5,0.7-15,0
			c-0.6-0.1-0.7,1.4-0.2,2C88.6,120,100,120.1,102.8,119.2L102.8,119.2z M100.1,115.7c2.4-0.4,3.4-0.6,6.9-1.7
			c2.7-0.9,4.6-1.4,6.6-2c1.1-0.3,1.4-0.5,2.1-1.5c1.2-1.5,1-1.6-1-0.6c-0.9,0.5-2.7,1.1-3.9,1.4c-1.2,0.3-2.5,0.7-2.9,0.8
			c-0.4,0.1-1.3,0.3-1.9,0.4c-2.2,0.4-3.1,0.6-4.8,1c-4.8,1.2-8.6,1.1-13.2-0.5c-1.3-0.4-2.3-0.7-2.4-0.7c-0.1,0.1,0.9,2.6,1.2,3
			C87.4,116.1,96.6,116.3,100.1,115.7L100.1,115.7z M46.9,115.3c0-0.3-0.2-0.6-0.6-0.8c-0.5-0.3-0.5-0.3-0.1-0.4
			c0.9-0.2,0.5-0.5-0.6-0.5c-1.2,0-1.7,0.7-1.1,1.7C44.9,116.1,46.9,116,46.9,115.3L46.9,115.3z M49,115.2l0.3-0.4l1.4,0.5
			c2,0.7,2.6,0.4,1.5-0.5c-0.4-0.4-1.3-1.3-1.9-2.1c-1.7-2-1.9-2.1-3.1-1.2c-1.2,1-0.5,1.7,0.7,0.7c0.5-0.4,1-0.3,0.7,0.2
			c-0.1,0.1-0.2,0.5-0.2,0.9c0,0.4-0.2,1.1-0.2,1.5C48,115.7,48.4,115.9,49,115.2L49,115.2z M99.8,110.7c3.3-0.2,12.8-1.7,14.1-2.3
			c0.2-0.1,0.8-0.3,1.2-0.3c1.4-0.3,3.1-1.2,3-1.6c-0.1-0.2-0.4-1.2-0.8-2.3c-0.4-1.1-1-3.1-1.3-4.4c-1.3-5-2.7-8.8-3.2-8.8
			c-0.6-0.1-0.6-0.3-0.1-0.7c1.1-0.9,1.5-2.8,0.8-3.7l-0.4-0.5l-1,0.5c-0.6,0.3-1.3,0.8-1.6,1.1c-0.6,0.7-1.6,1.4-3.1,2.3
			c-0.5,0.3-1.2,0.8-1.4,1c-2.9,2.5-11.5,1.5-16.7-2.1c-2-1.3-3.7-1-7.4,1.3c-1.8,1.2-3.8,1.3-7.7,0.4c-3.4-0.7-3-0.8-3.7,0.4
			c-1.6,2.8-3.7,9.6-3.7,11.9c0,4.5,4.7,6.5,16.4,7.2c1.3,0.1,3,0.2,3.8,0.3c0.8,0.1,2.7,0.3,4.1,0.3c1.4,0.1,2.6,0.2,2.6,0.2
			C93.7,111,96.6,110.9,99.8,110.7L99.8,110.7z M83.6,99.6c-2.8-0.3-4.3-1-6.6-2.8c-1.2-1-1.5-1.1-1.8-0.9c-0.3,0.2-0.4,0.2-0.5-0.1
			c-0.1-0.2-0.3-0.3-0.6-0.3c-0.7,0-1.7-1.1-1.3-1.4c0.8-0.5,2.2-0.4,2.2,0.1c0,0.4,0.2,0.6,1,1c0.5,0.3,1.4,0.8,1.8,1.3
			c2.8,2.4,9.5,2.9,13.5,1.1c0.6-0.3,1.5-0.7,2.1-0.8c0.5-0.2,1.6-0.6,2.4-1c0.8-0.4,1.8-0.8,2.3-0.9c0.5-0.1,1-0.3,1.1-0.5
			c0.2-0.4,0.6-0.2,1.3,0.3c0.7,0.7,0.8,1.1,0.2,0.8c-0.9-0.5-2.6-0.1-4.7,1C90.7,99.4,87.8,100.1,83.6,99.6L83.6,99.6z M85.2,94.8
			c-0.1-0.1,0.1-0.2,0.5-0.2c0.4,0,0.8-0.1,0.9-0.3c0.1-0.2,0.5-0.6,0.8-1c0.6-0.8,0.8-0.8,2.6-0.3c0.5,0.1,1.2-1,1-1.7
			c-0.2-0.7-1.4-0.8-2.5-0.2c-0.9,0.5-1.3,0.5-1,0c1.1-1.7,4.7-0.3,4,1.5c-0.5,1.3-2.3,2.3-2.4,1.3c-0.1-0.8-0.5-0.7-1.6,0.2
			C86.7,95,85.5,95.3,85.2,94.8L85.2,94.8z M81.7,94.6c-1.6-1.1-0.3-4.2,1.8-4.2c0.3,0,0.6,0.1,0.7,0.2c0.1,0.1-0.1,0.2-0.4,0.2
			c-2,0-3.1,1.9-1.9,3.2C82.4,94.7,82.3,95,81.7,94.6L81.7,94.6z M82.3,93.4c-0.1-0.1,0.1-0.4,0.3-0.7c0.5-0.5,1.7-0.3,2.1,0.3
			c0.3,0.5,0.1,0.7-0.6,0.4c-0.4-0.1-0.8-0.1-1.1,0C82.7,93.6,82.4,93.6,82.3,93.4L82.3,93.4z M149.6,106.7c0.9-1.8,2.5-2.4,3.1-1
			c0.3,0.6,0.9,0.5,0.9-0.1c0.2-1.6-2.9-2.3-4.1-0.9c-1.1,1.2-2,2.7-1.7,2.9C148.6,108,149.1,107.7,149.6,106.7L149.6,106.7z
			 M152.7,107.6c0.3-0.1,0.5-0.7,0.3-0.7c-0.2,0-1.7,0.7-1.7,0.8C151.3,107.8,152.3,107.7,152.7,107.6L152.7,107.6z M155,105.2
			c-0.7-1.2-0.9-0.8-0.7,1.5c0,0.1,0.2-0.1,0.5-0.4C155.3,105.8,155.3,105.7,155,105.2L155,105.2z M79.2,88.6
			c2.4-0.5,1.5-1.4-1.3-1.5c-2.2,0-4.3,1.1-2.8,1.4c0.3,0.1,0.7,0.1,0.9,0.2C76.8,88.9,77.7,88.8,79.2,88.6L79.2,88.6z M101.1,87.9
			c2.6-1.4-2.9-2.7-6.3-1.5c-1.5,0.5-1.6,0.8-0.4,1.2C96.7,88.5,99.7,88.6,101.1,87.9L101.1,87.9z M110.9,86.2
			c0.4-0.4,0.3-0.9-0.2-2.7c-2.4-8.3-2.1-7.8-3.5-7.2c-0.5,0.2-1.9,0.7-3,1c-4.2,1.1-4.7,1.3-3.7,1.8c0.4,0.2,0.3,0.2-0.7,0.1
			c-2.4-0.2-8.7,1.6-10.9,3.2C88.1,83,86,83.7,86,83.4c0-0.1,0.3-0.2,0.6-0.3c2.5-0.6,2.3-1.5-0.3-1.2c-1.4,0.2-2.6,0.2-4.3,0
			c-1.3-0.1-3.2-0.3-4.3-0.5c-1.1-0.1-2.1-0.3-2.3-0.3C75,80.9,74.5,81.6,74,83c-0.5,1.4-0.3,1.6,1.3,1.1c4.3-1.4,5.2-1.3,9.9,1.2
			c2.1,1.1,4.8,0.8,5.8-0.8c0.1-0.1,0.6-0.5,1.3-0.9c5.9-3.4,12.1-2.8,16.8,1.6C110.5,86.6,110.5,86.6,110.9,86.2L110.9,86.2z
			 M86.3,84.7c-0.8-0.2-3.7-1.2-4.6-1.6c-0.5-0.2-1.2-0.5-1.5-0.6c-0.5-0.1-0.6-0.2-0.2-0.2c0.3,0,1.1,0.2,1.9,0.5
			c0.8,0.3,1.4,0.5,1.5,0.5c0.1,0,0.7,0.2,1.4,0.5c2,0.8,2.8,0.6,5.9-1.5c1.2-0.8,3-1.4,3.6-1.3c0.2,0-0.1,0.2-0.7,0.5
			c-0.6,0.2-1.8,0.8-2.6,1.4C89.3,84,87,84.9,86.3,84.7L86.3,84.7z M90.9,75.7c-0.1-0.1-0.5-0.2-1-0.2c-0.5,0-0.9,0.1-0.9,0.2
			c0,0.1,0.4,0.2,1,0.2C90.6,75.9,91,75.8,90.9,75.7z M87.2,75.5c0.2-0.3-0.3-0.4-2.3-0.6c-1.2-0.1-1.8-0.1-1.8,0.1
			c0,0.3,0.8,0.4,2.5,0.5c0.6,0,1.2,0.1,1.2,0.1C87,75.7,87.1,75.6,87.2,75.5L87.2,75.5z M199.7,162.7c-0.5-0.2-1.1-0.5-1.5-0.6
			c-1.2-0.3-4.6-1.8-5.3-2.3c-0.9-0.7-1.5-1.7-3.5-5.4c-0.3-0.5-0.7-1.1-1.1-1.5c-0.8-0.8-0.6-1.2,1.6-2.5c1-0.6,2.1-1.3,2.6-1.5
			c0.4-0.3,1-0.7,1.3-1.1c0.7-0.8,1.5,0.1,2.3,2.6c0.9,2.8,4.6,5.8,7.2,5.8c1.6,0,4.8,2.4,3.7,2.8c-1.1,0.4-5.3,3.3-5.7,3.9
			C201,163.3,200.7,163.2,199.7,162.7L199.7,162.7z M203,160.5c3.3-2.4,3.3-2.4-1-3.2c-2.6-0.5-3.3-0.9-4.4-1.9
			c-1-1.1-1.3-0.9-1.2,0.6c0,0.4,0,0.5-0.2,0.3c-0.4-0.4-0.7-0.3-0.6,0c0.1,0.2,0.1,0.4,0,0.5c-0.1,0.1-0.1,0.6-0.1,1.1
			c0,0.8-0.1,0.9-0.6,1.2c-0.8,0.4-0.6,0.8,0.9,1.3c0.7,0.3,1.9,0.8,2.8,1.2C200.5,162.5,200.1,162.6,203,160.5L203,160.5z
			 M193.4,158.6c0-0.1-0.2-0.3-0.5-0.5c-0.6-0.4-0.2-0.7,0.5-0.3c0.7,0.4,1,0,0.5-0.5c-0.7-0.8,0-2.2,1.3-2.2c1.1,0,1.4-0.8,0.8-2.3
			c-0.3-0.6-0.6-1.5-0.7-2c-0.7-2.1-1.2-2.5-2.3-1.6c-0.7,0.6-1.5,1-3.1,1.9c-1.5,0.7-1.5,1-0.8,2c0.6,0.8,1.4,2,2.3,3.7
			C192.2,158.1,193.4,159.2,193.4,158.6L193.4,158.6z M194.9,158.1c0-0.4-0.1-0.4-0.2-0.2c-0.1,0.1-0.2,0.4-0.1,0.5
			C194.8,158.7,194.9,158.6,194.9,158.1L194.9,158.1z M195.1,156.1c0.1-0.4-0.3-0.5-0.8-0.2c-0.2,0.1-0.2,0.3-0.1,0.4
			C194.4,156.7,195,156.6,195.1,156.1z M201.9,150.1c-4-4-8-5.7-13.3-5.5c-0.8,0-1.5-0.1-1.6-0.2c-0.1-0.1-0.4-0.3-0.6-0.3
			c-1.3,0-0.7-1.3,2.4-4.7c2.1-2.3,1.9-2.2,3.2-1.7c0.2,0.1,0.9,0.4,1.5,0.6c0.6,0.2,1.6,0.5,2.2,0.6c0.6,0.1,1.2,0.2,1.2,0.4
			s0.2,0.2,0.5,0.2c1.6,0,6.6,2.2,8,3.5c1,1,1,1-0.9,5.1c-0.4,0.9-0.8,1.8-0.8,1.9C203.7,150.9,202.8,151,201.9,150.1L201.9,150.1z
			 M204,147.3c1.6-3.3,1.6-3.3,0.8-4c-0.8-0.8-1.7-1.2-4.2-2.1c-3-1-3.8-0.9-3.1,0.4c0.3,0.6,0,0.8-0.4,0.3
			c-0.5-0.7-0.9-0.1-0.5,0.6c0.4,0.8,0,1.7-0.8,1.7c-0.9,0-0.7,0.3,1,1.2c0.9,0.5,2.5,1.6,3.7,2.6c1.2,0.9,2.1,1.7,2.2,1.7
			C202.8,149.8,203.4,148.7,204,147.3L204,147.3z M194.3,144c0-0.2-0.1-0.4-0.3-0.6c-0.2-0.2-0.2-0.3,0.3-0.2c0.7,0.2,1.2-0.3,1-1.1
			c-0.1-0.6,0.6-1.6,1.2-1.6c0.8,0,0-0.4-1.4-0.8c-0.9-0.2-2.1-0.6-2.6-0.9c-1.5-0.7-1.5-0.7-2.8,1.1c-0.6,0.9-1.5,1.9-1.8,2.3
			c-1,1.1-0.8,1.3,2.3,1.5c1.5,0.1,2.9,0.2,3.1,0.3C193.9,144.4,194.3,144.4,194.3,144L194.3,144z M196.4,143.2
			c0.1-0.2,0-0.2-0.2-0.2c-0.2,0.1-0.3,0.2-0.4,0.4c-0.1,0.2,0,0.2,0.2,0.2C196.2,143.6,196.4,143.4,196.4,143.2z"/>
	</g>
</g>
<g id="Layer_2">
	<circle class="st1" cx="125" cy="125" r="122.5"/>
</g>
</svg>
