<?xml version="1.0" encoding="utf-8"?>
<!-- Generator: Adobe Illustrator 22.1.0, SVG Export Plug-In . SVG Version: 6.00 Build 0)  -->
<svg version="1.1" id="Layer_1" xmlns="http://www.w3.org/2000/svg" xmlns:xlink="http://www.w3.org/1999/xlink" x="0px" y="0px"
	 viewBox="0 0 250 250" style="enable-background:new 0 0 250 250;" xml:space="preserve">
<style type="text/css">
	.st0{fill:#2F3542;}
</style>
<g id="Layer_1_1_">
	<g>
		<path class="st0" d="M40.2,218c-1.3-0.9-1.5-1.1-1.4-1.8s0-0.9-1.9-1.1c-3.5-0.8-5.4-2.8-5.6-6.3c-0.1-2.1,0.3-2.1,1.9,0
			c1.8,2.4,7.9,5,10.2,4.3c0.9-0.3,10.6-10.6,12.4-13.2c3.3-4.6,5.7-8.4,7.5-11.4c0.3-0.4,0.8-1.3,1.1-1.7c0.3-0.4,1-1.5,1.4-2.4
			c0.4-0.9,1-1.8,1.1-2.1c2.4-4.1,5.5-11.8,4.9-12.3c-0.4-0.4-6.5-0.1-11.6,0.5c-4.5,0.8-4.7,0.5-4.7-0.3c-0.1-3.1,1.4-12,3.2-19.4
			c0.8-2.7,1.4-5.9,1.5-7c0.1-1.1,0.5-2.9,1-4c2.3-6.5,2.1-8.7-0.3-5.7c-7.4,9.1-13.4,10.9-22.5,7c-1.4-0.8-2.8-1.1-2.9-1.1
			c-1,0-9.2-7.8-11-10.5c-2.5-3.8-8.4-2.1-8.7,2.4l-0.1,2.4l1.4,1c2.7,1.8,3.2,4.1,1.8,7.4c-0.5,1.5,1.1,4.9,4.6,8.7
			c2.3,2.5,2.3,4,0.1,4.9c-2.1,1-4.7-1.8-7.8-8.1c-1-1.9-1.4-2.5-2.5-3.1c-3.2-1.7-4.3-6.8-2.1-9.1c0.9-1,1.5-7.5,0.9-7.9
			c-1.3-0.9-0.4-4.7,1.4-5.9c0.5-0.3,1.3-1,1.5-1.4c0.3-0.4,1-0.9,1.5-1c0.8-0.1,1.3-0.5,1.5-1c0.8-1.1,2.8-2.1,3.6-1.7
			c1.1,0.5,1,1.8-0.5,3.2c-1.4,1.3-1.4,1.1,1,4c1.1,1.3,1.7,1.7,3.1,1.9c1,0.3,2.3,0.8,3.1,1.1c5.5,2.5,15.4,3.5,20.4,1.9
			c0.9-0.3,2.7-0.8,4-1.1c1.4-0.4,2.5-0.9,2.8-1c0.1-0.1,0.5-0.3,0.9-0.3s1.8-0.8,3.5-1.5c4.7-2.4,5.7-3.3,3.8-3.3
			c-1,0-3.6-0.4-9.6-1.4c-13-2.3-17.2-14.4-8.9-26c0.5-0.9,1.3-2.1,1.5-2.8c0.4-1.1,2.4-4.7,4.1-7.4c1-1.5,2.7-5,2.7-5.4
			c0-0.4-0.9-0.8-4.5-1.5c-4.3-1-5.1-3.1-1.1-3.1c0.3,0,1.1-0.3,1.9-0.8c0.9-0.4,2.8-1,4.5-1.3c2.8-0.5,3.3-0.9,2.3-1.3
			c-2.7-0.9-3.1-4.2-0.9-5.6c3.1-1.9,27.9-4.1,35.7-3.1c7.3,1,8.9,1.8,10.6,6.1c0.4,1,1,2.5,1.4,3.3c1.1,2.5,1.5,3.6,2.3,6.8
			c1,4.3,1.4,5.4,2.5,5.4c2.3,0,3.3,2.5,2.4,5.9c-0.3,0.9-0.1,1.4,0.3,2.5c0.3,0.9,0.8,1.7,0.8,1.9c0,0.2,0.5,1.7,1,3.1
			c0.5,1.4,1.4,4.3,2.1,6.4c1.3,3.8,2.9,8.7,4,10.7c2.5,5.7,21.5,9.3,29.4,5.6c0.9-0.4,1.8-0.9,2.3-1c1.9-0.5,4.7-2.8,6.5-5.5
			c3.1-4.3,3.6-4.5,9.1-3.5c2.1,0.4,4.6,4.1,3.6,5.1c-0.9,0.9-0.9,1.4,0,2.9c0.4,1,5.1,14.6,5.1,15c0,0.3,1.5,0,1.8-0.3
			c1.3-1.5,6.1-3.2,6.5-2.1c0.1,0.3,0.4,0.4,0.5,0.4c0.4,0,2.7,1.9,2.7,2.4c0,0.1-0.1,0.4-0.3,0.9c-0.8,1.4-0.1,1.5,1.9,0.4
			c4.7-2.5,16-7.9,20.7-10.2c2.5-1.1,3.6-1,3.3,0.5c-0.3,1.1-0.8,1.5-4.3,3.5c-5.1,2.7-7.3,4-8.8,4.9c-0.9,0.5-1.9,1.3-2.4,1.5
			c-1,0.5-1.9,2.4-2.9,5.4c-1.3,3.5-0.9,4.2,1.9,3.6c4.6-1.1,6.3,0.1,7.8,6.1c0.8,2.5,1.8,2.3,5.7-1.4l1.7-1.5l1,0.9
			c0.5,0.4,1.1,1.1,1.3,1.4c0.1,0.3,0.4,1,0.9,1.4c1.4,1.9,0.4,3.1-3.5,4.2c-4.2,1.3-5,1-6.9-1.7c-3.3-5-5.9-6.4-5.1-2.7
			c0.9,4.2,0.5,4.9-1.3,2.9c-2.4-2.4-2.4-1.9-0.8,3.5c0.8,2.3,1.5,4.7,1.7,5.6c0.4,1.8,1.8,4.6,2.9,5.9c2.7,3.1,8.9,14.6,10.4,18.9
			c2.8,8.4,1.5,18.8-1.8,15.2c-0.9-0.9-2.5-2.5-3.8-3.5l-2.3-1.9l-0.5-2.5c-0.3-1.4-0.8-3.3-0.9-4.5c-0.1-1.1-0.5-2.8-0.9-3.6
			c-0.3-1-0.9-2.8-1.1-4.2c-0.5-2.4-1.7-5.9-3.3-10c-1.4-3.3-1.8-3.2-1,0.3c0.3,1,0.5,2.7,0.9,3.8c0.1,1.1,0.5,3.1,0.9,4.3
			c0.3,1.3,0.5,2.9,0.8,3.6c1.1,5.5,0.8,9.2-1.3,13.3c-0.8,1.4-1.4,2.9-1.7,3.6c-0.8,1.7-0.9,1.5-4.9-2.7l-3.6-3.8l-0.4-3.5
			c-0.3-2.1-0.4-6-0.4-9.6c0-6.3-0.3-7.5-1.4-5.9c-0.1,0.1-0.9,0.4-1.7,0.8c-0.9,0.3-2.1,0.8-2.9,1.1c-2.7,1.1-3.5,1.3-4.9,0.3
			c-1.3-0.9-4.5-2.3-5-2.3c-0.3,0-0.3,0.3-0.1,0.9c0.5,2.1,0,3.5-1.9,4.1c-1.3,0.4-1.3,0.5-0.4,1.5c1.9,2.5-1.9,4.9-4.1,2.4
			c-1.1-1.3-0.5-3.6,0.9-3.6c1,0,1.4-0.9,1.1-1.7c-1-2.5,0.9-4.6,3.6-4.2c1.9,0.3,3.6-1.9,2.4-3.2c-0.5-0.8-0.4-1.3,0.4-1.3
			c1.4,0,1.9-2.4,1-3.8c-0.8-1-0.8-1.8,0-1.8c1.3,0,1.5-2.5,0.4-4.1c-0.3-0.4-0.1-0.8,0.8-1.5c1.3-1.1,1.4-2.3,0.5-3.5
			c-0.9-1-0.9-1.5,0.1-2.4c1.1-1.1,0.8-3.2-0.9-4c-0.5-0.3-0.5-0.3,0-1.1c0.9-1.1,0.9-2.1-0.1-3.3c-0.9-1-0.9-1-0.1-1.4
			c1.3-0.9-0.1-2.7-1.7-1.9c-0.9,0.4-1,1.3-0.3,1.4c0.8,0.3,0.5,0.9-0.4,1.9c-1.1,1.1-1.3,2.8-0.3,3.3c0.8,0.4,0.9,1.1,0.3,1.4
			c-0.9,0.3-0.4,2.8,0.4,3.8c1,1,1.1,1.5,0.3,1.8c-1.3,0.4-1.5,2.4-0.8,3.6c0.8,0.9,0.9,1.4,0.1,1.4c-1.5,0-2.4,2.9-1.3,4.1l0.8,0.8
			l-1,1c-1.1,1-1.5,3.2-0.8,3.6c0.5,0.4,0.3,0.8-0.8,1.3c-1,0.4-1.3,0.9-1.4,2.5c-0.1,0.8-0.1,0.8-1.8-0.1c-1-0.4-3.5-1.7-5.9-2.7
			c-2.3-1-5.1-2.3-6.4-2.8c-1.3-0.5-3.5-1.5-5-2.1c-1.5-0.8-3.6-1.5-4.6-1.9c-1-0.4-2.5-1.1-3.3-1.4c-2.4-0.9-2.7-1.1-2.3-2.5
			c0.8-2.9,1.4-5,3.8-11.6c0.4-1.4,1.3-3.5,1.7-4.7c0.4-1.3,1.1-3.2,1.5-4.5c0.4-1.1,1-2.7,1.1-3.2c0.4-1.4,0.3-1.4,3.6-0.4
			c1.7,0.5,3.1,1,3.2,1s0.4-0.9,0.8-1.8c0.5-1.9,2.7-8.6,4.2-13c1.4-4.2,1.4-4.7,0.5-5c-1.7-0.4-1.7-0.4-4.3,5.7
			c-1.4,3.3-5.7,10-7.4,11.1c-6,4.9-12.5,4.6-18.7-0.8c-2.8-2.5-2.8-2.7,0.8,7.5c0.3,1,0.8,2.1,1,2.4c0.1,0.3,1,2.4,1.7,4.7
			c0.9,2.4,1.8,5,2.1,5.9c0.9,2.1,1.7,4.6,1.7,5.5c0,0.3,0.1,0.8,0.4,1c0.4,0.4,2.4,7.7,2.3,7.8c-0.1,0.1-3.1,0.8-6.1,1.3
			c-4,0.5-4,0.5-5.7,5c-3.3,8.3,0.9,15.1,10.1,16.1c1.7,0.1,2.3,0.1,6.9-1.1c0.5-0.1,1.9-0.8,2.9-1.3c1-0.5,2.3-1.3,2.9-1.5
			c2.3-1.1,5.4-3.3,6.8-4.6c1.5-1.5,2.4-1.5,3.2-0.4c0.8,1,0.5,1.7-0.8,2.5c-1.5,1-1.7,1.7-1.1,2.8c1.4,2.7-0.8,7.2-4.1,9.2
			c-2.7,1.7-2.8,1-0.9-2.9c3.5-6.8,3.6-9.5,0.4-5.5c-0.9,1.1-2.1,2.4-2.8,2.9c-0.8,0.5-2.5,1.9-4,3.2c-3.5,2.9-7.2,5.1-10,6.3
			c-0.9,0.3-1.8,0.8-2.1,0.9c-18.7,8.6-34.3-2.9-29.9-21.9c1.4-6.3,0.8-7.4-2.5-3.5c-2.3,2.8-7.9,8.3-11,10.7
			c-0.9,0.8-2.3,1.9-3.2,2.8c-2.1,1.8-7.4,6-10.1,7.5c-1,0.8-2.8,1.8-4,2.7c-1.1,0.9-2.4,1.5-2.7,1.7c-2.1,1.3-6.3,4-7,4.5
			c-1,0.8-2.8,1.8-7.9,4.5c-1.5,0.9-3.5,1.8-4.5,2.4c-1,0.5-2.4,1.1-3.3,1.5c-1.5,0.5-1.8,0.9-2.7,2.5
			C42.3,219.3,42.2,219.3,40.2,218L40.2,218z M211.1,202.3c0.4-2.4,0.3-4.2-0.1-3.5c-0.1,0.3-0.8,1.1-1.3,1.9l-0.9,1.4l0.8,1
			C210.4,204.1,210.8,204,211.1,202.3L211.1,202.3z M194.7,200c2.1-4.6,2.7-7.8,1.9-11.8c-2.4-14.1-2.9-16.8-4.5-20.4
			c-1.1-2.8-1.5-3.3-2.1-2.8c-1,1-1.9,0.3-1.4-1.1c0.4-1.1,0.8-1.3,1.1-0.4c1.3,2.3,0.5-1.4-1-4.9c-1.7-4-1.8-3.6-1.7,2.9
			c0.1,4,0.1,6.4-0.1,8.1c-0.5,3.2-0.8,13.4-0.4,20l0.3,5.4l3.2,3.5C194,202.5,193.7,202.4,194.7,200L194.7,200z M192.6,196
			c0-1,0.8-1.9,1.1-1.7c0.4,0.3,0.4,1.5,0,1.9C193.2,196.9,192.6,196.8,192.6,196L192.6,196z M188.7,192.5c0-1.5,0.9-2.3,1.3-1.1
			c0.4,1.1,0.4,1.7-0.1,1.8C188.9,193.5,188.7,193.3,188.7,192.5L188.7,192.5z M192.2,190c-0.3-0.4,0.1-1.8,0.9-2.4
			c0.8-0.8,1-0.4,0.8,0.9C193.6,189.5,192.5,190.5,192.2,190L192.2,190z M188.7,183.2c0-1.1,0.9-2.3,1.5-2.3c0.6,0,0.9,1.8,0.3,2.4
			C189.4,184.3,188.7,184.3,188.7,183.2L188.7,183.2z M193.1,178.8c-0.1-0.9,0.3-1.7,0.9-1.7c0.4,0,0.1,2.3-0.3,2.4
			C193.5,179.5,193.2,179.2,193.1,178.8L193.1,178.8z M189,173.5c0-1.9,1.3-2.8,1.8-1.3c0.4,1.1-0.3,2.4-1.3,2.4
			C189.1,174.6,189,174.4,189,173.5L189,173.5z M210.1,198.5c1-1.8,1.3-2.8,1.3-4c0-2.4-0.8-1.9-1.8,1.1c-0.4,1-1,2.3-1.4,2.8
			c-0.9,1.1-0.9,1.7-0.4,2.3C208.4,201.4,208.9,201,210.1,198.5L210.1,198.5z M207.8,196.5c1.3-2.9,1-3.3-0.8-0.8
			c-1.7,2.5-1.7,2.8-0.9,2.8C206.6,198.5,207,198.1,207.8,196.5L207.8,196.5z M206.5,194.9c0.8-1.4,1.5-3.2,1.8-4.2
			c0.3-0.9,0.8-1.8,0.9-2.1c0.4-0.4,0.1-1.7-0.4-1.7c-0.3,0-0.5,0.5-0.9,1.3c-0.3,0.8-1.3,2.8-2.4,4.6c-2.3,4-2.4,4.6-1,4.6
			C205.1,197.4,205.6,196.5,206.5,194.9L206.5,194.9z M204.7,192.5c0.4-0.9,1-2.5,1.4-3.8c0.4-1.3,1-2.8,1.3-3.3
			c0.5-1.1,0.3-2.5-0.5-2.7c-0.3,0-0.8,0.4-1,1.7c-0.3,1-1.1,2.9-1.8,4.2c-1.1,2.1-1.3,2.7-1,3.8
			C203.3,194.7,203.7,194.7,204.7,192.5L204.7,192.5z M210.8,190.7c0-0.5-0.4-0.5-0.8-0.1c-0.3,0.4,0.1,1,0.4,0.8
			C210.7,191.2,210.8,190.9,210.8,190.7L210.8,190.7z M203.3,187.2c2.3-6.1,2.7-8.4,1.1-8.9c-0.4-0.1-0.5-0.1-1.8,3.6
			c-1.1,3.5-1.3,3.6-0.9,5.1C202.3,188.7,202.7,188.7,203.3,187.2L203.3,187.2z M166.1,184c0.3-1.4-0.3-2.1-1.5-1.8
			c-2.3,0.5-1.9,3.1,0.4,2.8C165.6,184.9,166,184.8,166.1,184L166.1,184z M201.9,180.3c0.3-1.1,0.8-2.7,0.9-3.2
			c0.3-0.9,0.3-1.3,0-1.9c-0.5-1.3-1.3-1-1.5,0.5c-0.1,0.8-0.4,1.9-0.8,2.9c-0.4,1.4-0.4,1.9-0.1,2.8
			C200.9,183.1,201.3,182.9,201.9,180.3L201.9,180.3z M168,179.5c0.9-0.9,1-1.4,0.4-2.4c-0.5-1.1-3.3,0-3.3,1.4
			C165.1,180.2,166.7,180.7,168,179.5L168,179.5z M200.4,174.8l0.8-2.8l-0.8-0.8c-0.9-0.9-1-0.8-1.4,1.5c-0.5,2.3-0.5,3.3-0.1,4.1
			C199.3,178.2,199.6,177.9,200.4,174.8L200.4,174.8z M198.2,171.2c0.3-2.3,0.1-3.1-0.5-3.1s-1.1,4.1-0.5,5
			C197.7,173.9,198.1,173,198.2,171.2L198.2,171.2z M91.7,168.5c0.4-1.8,0-2.1-1.9-1.5c-1.1,0.3-3.6,0.4-8.1,0.4
			c-6.3,0-6.4,0-6.4,0.5c0,0.9,7.8,1.9,13.4,1.8h2.8L91.7,168.5L91.7,168.5z M196.1,167.8c0.1-1.8,0-2.5-0.5-2.5
			c-0.5,0-0.9,2.1-0.4,3.2C195.5,169.6,196,169.3,196.1,167.8L196.1,167.8z M194.1,164.7c-0.1-1.7-0.9-3.2-1.4-3.3
			c-0.3-0.1-0.3,0.3-0.1,1.4C193.1,165.6,194.5,167.5,194.1,164.7L194.1,164.7z M89.7,165.2c1.8-0.1,1.9-0.3,2.1-1l0.1-0.9l-4,0.1
			c-2.5,0.1-5.1,0-7.5-0.4c-5.1-0.8-5.1-0.8-5.4,0.1c-0.1,1.1,0.4,1.7,1.7,1.4c0.5-0.1,2.1,0,3.3,0.3
			C82.6,165.3,86.3,165.5,89.7,165.2L89.7,165.2z M89,160.5h3.1l0.4-1.4c0.4-1.8,0.3-1.9-2.5-1.4c-1.7,0.3-10.5,0.8-14.1,0.8
			c-3.1,0-0.1,1.5,3.5,1.8c2.3,0.1,4.3,0.4,4.5,0.4c0.3,0,0.9,0,1.3,0C85.6,160.6,87.2,160.6,89,160.5L89,160.5z M22.8,154.6
			c-0.8-0.5-1.1-0.5-1.1,0c0,0.5,1,1.1,1.4,0.8C23.2,155.1,23.2,154.9,22.8,154.6z M84.3,154.9c2.4-0.3,5.6-0.5,7-0.8
			c2.3-0.1,2.5-0.3,2.7-0.9c0.4-1.8-2.1-1.9-9.1-0.8c-2.4,0.4-5.6,0.9-7,0.9h-2.5v1v1h2.3C78.8,155.3,81.9,155.1,84.3,154.9
			L84.3,154.9z M23.7,153.8c0-0.3-0.3-0.4-0.5-0.4c-0.4,0-0.4,0.1-0.1,0.4c0.3,0.3,0.4,0.4,0.5,0.4
			C23.7,154.5,23.7,154.2,23.7,153.8z M79.9,150c1.1-0.3,3.8-0.4,5.9-0.4c6,0,9.5-0.5,10.1-1.5c0.5-1.1,0.3-1.9-0.8-1.7
			c-3.8,1.1-7.9,1.4-13.8,0.8c-7.2-0.8-7.5-0.5-6.1,3.1C75.5,150.5,77.3,150.5,79.9,150L79.9,150z M188,147.4
			c1.3-1.9,2.8-5.5,2.8-6.1c0-1.4-1-0.5-1.8,1.4c-0.5,1.1-1.4,2.9-1.8,4C185.8,149.4,186.3,150,188,147.4L188,147.4z M187.5,141.8
			c0-0.9-0.8,0-1.5,2.1c-1.3,2.9-1.5,3.3-1.3,3.6C184.8,147.7,187.5,142.5,187.5,141.8L187.5,141.8z M179.9,145.4
			c0.1-0.4,0.8-1.5,1.1-2.4c0.8-1.3,0.9-2.3,0.3-1.7c-0.4,0.4-2.4,4.1-2.4,4.5C178.9,146.4,179.5,146.2,179.9,145.4L179.9,145.4z
			 M17,144c1.1-0.9,2.1-3.5,1.7-4.7c-0.1-0.5-0.3-1.1-0.3-1.3c-0.5-2.7-4.7-2.9-6.4-0.4C9.4,141.6,13.2,146.8,17,144L17,144z
			 M14.4,141.2c-0.1-0.3-0.4-1.1-0.4-1.9c-0.1-1.5-0.1-1.5,0.1-0.4c0.4,1.3,0.9,1.5,2.3,1c1.7-0.8,1.8-0.1,0.3,0.9
			C14.7,141.7,14.7,141.7,14.4,141.2L14.4,141.2z M91.4,143.7c1-0.1,2.7-0.4,3.5-0.4c2.9-0.4,3.1-0.4,3.5-1.5
			c0.3-0.5,0.4-1.1,0.4-1.3c0-0.3-1.8-0.1-2.5,0.3c-2.7,1.4-16.8,1.1-20.7-0.4c-1.8-0.8-2.1-0.4-1.7,1.4c0.4,1.7,0.1,1.5,4.3,2.1
			C82.4,144.2,87.6,144.2,91.4,143.7L91.4,143.7z M169.9,142.6c0.1-0.4,0.8-1,1.1-1.3c0.8-0.3,1-1,0.4-1c-0.9,0-3.2,2.3-2.9,2.8
			C169,143.7,169.6,143.4,169.9,142.6L169.9,142.6z M168.3,141.7c0.4-0.4,1.3-1,1.8-1.4c1-0.5,1.4-1.3,1-1.3c-0.8,0-4.2,2.8-4.2,3.2
			S167.6,142.5,168.3,141.7L168.3,141.7z M174.4,141.8c-0.1-0.1-0.3-0.1-0.4-0.1c-0.1,0.1-0.1,0.3-0.1,0.4c0.1,0.1,0.3,0.1,0.4,0.1
			C174.4,142.2,174.6,142,174.4,141.8z M167.9,140c2.1-1.5,2.7-2.4,1.8-2.4c-0.3,0-5,3.6-5.1,4.1C164.2,142.5,165.7,141.6,167.9,140
			L167.9,140z M163.5,140.7c0.4-0.3,1.5-1.3,2.5-1.9c2.4-1.8,1.3-1.8-1.5,0c-1.3,0.9-2.4,1.5-2.4,1.5
			C161.1,140.9,162.5,141.3,163.5,140.7L163.5,140.7z M173.6,140.7c0.1-0.8-0.4-0.8-0.9,0.1c-0.3,0.5-0.3,0.5,0.3,0.5
			C173.1,141.2,173.6,140.9,173.6,140.7L173.6,140.7z M178,140.9c0.5-0.8,0.8-2.1,0.3-2.1c-0.5,0-1.1,1-1.1,1.8
			C177.1,141.3,177.4,141.4,178,140.9z M94.4,138.9c1.3-0.3,3.2-0.8,4.5-1l2.1-0.5l1.3-2.3c1.4-2.4,1.5-3.1,1.1-3.1
			c-0.8,0-5.1,1.5-6,2.1c-0.5,0.3-1.3,0.5-1.4,0.5c-0.1,0-0.9,0.3-1.3,0.5c-1.1,0.8-16.2,0.9-18.7,0c-0.9-0.3-1.7-0.5-1.9-0.5
			c-1.1-0.3-0.8,2.5,0.5,3.2C76.5,139,89.9,139.8,94.4,138.9L94.4,138.9z M158.3,138.2c0.9-0.9,1-1.1,1.4-4.9c0.3-2.3,0.8-5.1,1-6.8
			c0.4-2.8,1.1-7.8,1.3-8.1c0-0.1-0.1-0.1-0.4-0.3c-0.8-0.1-1.1,1-3.2,8.4c-0.4,1.4-1.3,4.2-1.9,6.3c-0.8,2.1-1.3,4.2-1.3,4.6
			C155,139.3,156.8,139.6,158.3,138.2L158.3,138.2z M190.1,138.2c0.5-0.3,1.7-1,2.7-1.5c2.8-1.9,8.9-5.5,10-5.9
			c1.4-0.5,7.8-4.5,7.8-4.7c0-0.4,0-0.5-4.5,1.5c-2.4,1.1-7.2,3.5-7.7,3.8c-0.1,0.1-1.3,0.5-2.5,1.1c-1.1,0.4-3.1,1.4-4.3,2.1
			c-1.1,0.8-3.1,1.7-4.1,2.1c-2.4,1-2.5,1.3-1,1.8C187.7,139,188.6,138.9,190.1,138.2L190.1,138.2z M164.7,137.5
			c1.4-1,1.8-1.8,0.9-1.8c-0.8,0-3.1,1.8-3.1,2.4C162.3,138.8,163.2,138.5,164.7,137.5L164.7,137.5z M171.4,135.7
			c0.9-0.9,0.4-2.8-1.1-7.3c-0.8-1.9-1.8-5-2.4-6.8c-1.3-4-2.7-5.4-3.2-3.1c-0.9,3.6-2.3,15.4-1.8,15.8c0.1,0.1,0.5,0,1.1-0.4
			l0.9-0.8l1,0.8c1,0.8,4.1,2.1,4.7,2.1C170.7,136.3,171.1,136,171.4,135.7L171.4,135.7z M93.9,132.8c1.3-0.4,3.5-1.1,5-1.5
			c1.5-0.4,3.1-1,3.5-1.1c0.4-0.1,1.3-0.3,1.8-0.4c1.1-0.3,3.1-2.5,3.1-3.5c0-0.5-1.1-0.9-1.7-0.3c-0.4,0.4-9.2,3.3-11.9,4
			c-4.3,1-16.1,1-21,0c-0.9-0.1-1,1.9-0.3,2.8C74.1,133.9,90,134,93.9,132.8L93.9,132.8z M90.2,127.9c3.3-0.5,4.7-0.9,9.6-2.4
			c3.8-1.3,6.4-1.9,9.2-2.8c1.5-0.4,1.9-0.8,2.9-2.1c1.7-2.1,1.4-2.3-1.4-0.9c-1.3,0.8-3.8,1.5-5.5,1.9c-1.7,0.4-3.5,1-4.1,1.1
			c-0.5,0.1-1.8,0.4-2.7,0.5c-3.1,0.5-4.3,0.9-6.8,1.4c-6.8,1.7-12,1.5-18.4-0.8c-1.8-0.5-3.2-1-3.3-1c-0.1,0.1,1.3,3.6,1.7,4.2
			C72.4,128.4,85.2,128.8,90.2,127.9L90.2,127.9z M15.8,127.4c0-0.4-0.3-0.9-0.9-1.1c-0.8-0.4-0.8-0.4-0.1-0.5
			c1.3-0.3,0.8-0.8-0.9-0.8c-1.7,0-2.4,1-1.5,2.4C12.9,128.4,15.8,128.3,15.8,127.4L15.8,127.4z M18.7,127.2l0.4-0.5l1.9,0.8
			c2.8,1,3.6,0.5,2.1-0.8c-0.5-0.5-1.8-1.8-2.7-2.9c-2.4-2.8-2.7-2.9-4.3-1.7c-1.7,1.4-0.8,2.4,1,1c0.8-0.5,1.4-0.4,1,0.3
			c-0.1,0.1-0.3,0.8-0.3,1.3c0,0.5-0.3,1.5-0.3,2.1C17.3,127.9,17.8,128.1,18.7,127.2L18.7,127.2z M89.7,120.9
			c4.6-0.3,17.9-2.4,19.7-3.2c0.3-0.1,1.1-0.4,1.7-0.4c1.9-0.4,4.3-1.7,4.2-2.3c-0.1-0.3-0.5-1.7-1.1-3.2c-0.5-1.5-1.4-4.3-1.8-6.1
			c-1.8-7-3.8-12.3-4.5-12.3c-0.9-0.1-0.9-0.4-0.1-1c1.5-1.3,2.1-4,1.1-5.1l-0.5-0.8l-1.4,0.8c-0.9,0.4-1.8,1.1-2.3,1.5
			c-0.9,1-2.3,1.9-4.3,3.2c-0.8,0.4-1.7,1.1-1.9,1.4c-4.1,3.5-16.1,2.1-23.4-2.9c-2.8-1.8-5.1-1.4-10.4,1.8
			c-2.5,1.7-5.4,1.8-10.7,0.5c-4.7-1-4.2-1.1-5.1,0.5c-2.4,3.9-5.4,13.4-5.4,16.6c0,6.3,6.5,9.1,22.9,10.1c1.8,0.1,4.2,0.3,5.4,0.4
			c1.1,0.1,3.8,0.4,5.7,0.4c1.9,0.1,3.6,0.3,3.6,0.3C81.2,121.4,85.2,121.1,89.7,120.9L89.7,120.9z M67,105.4c-4-0.4-6-1.4-9.2-4
			c-1.7-1.4-2.1-1.5-2.5-1.3c-0.4,0.3-0.5,0.3-0.8-0.1c-0.1-0.3-0.4-0.4-0.9-0.4c-1,0-2.4-1.5-1.8-1.9c1.1-0.8,3.1-0.5,3.1,0.1
			c0,0.5,0.3,0.9,1.4,1.4c0.8,0.4,1.9,1.1,2.5,1.8c4,3.3,13.3,4.1,18.9,1.5c0.9-0.4,2.1-1,2.9-1.1c0.8-0.3,2.3-0.9,3.3-1.4
			c1.1-0.5,2.5-1.1,3.2-1.3c0.8-0.1,1.4-0.4,1.5-0.8c0.3-0.5,0.9-0.3,1.8,0.4c1,1,1.1,1.5,0.3,1.1c-1.3-0.8-3.6-0.1-6.5,1.4
			C77,105.1,72.9,106,67,105.4L67,105.4z M69.3,98.6c-0.1-0.1,0.1-0.3,0.8-0.3c0.5,0,1.1-0.1,1.3-0.4c0.1-0.3,0.8-0.9,1.1-1.4
			c0.9-1.1,1.1-1.1,3.6-0.4c0.8,0.1,1.7-1.4,1.4-2.4c-0.3-1-1.9-1.1-3.5-0.3c-1.3,0.8-1.8,0.8-1.4,0C74,91,79,93,78.1,95.5
			c-0.8,1.8-3.2,3.2-3.3,1.8c-0.1-1.1-0.8-1-2.3,0.3C71.4,99,69.7,99.4,69.3,98.6L69.3,98.6z M64.5,98.4c-2.3-1.6-0.4-5.9,2.5-5.9
			c0.4,0,0.9,0.1,1,0.3c0.1,0.2-0.1,0.3-0.5,0.3c-2.8,0-4.3,2.7-2.7,4.5C65.4,98.5,65.2,99,64.5,98.4L64.5,98.4z M65.2,96.7
			c-0.1-0.1,0.1-0.5,0.4-1c0.8-0.8,2.4-0.4,2.9,0.4c0.4,0.8,0.1,1-0.9,0.5c-0.5-0.1-1.1-0.1-1.5,0C65.8,97,65.4,97,65.2,96.7
			L65.2,96.7z M159.3,115.3c1.3-2.5,3.5-3.3,4.3-1.4c0.4,0.9,1.3,0.8,1.3-0.1c0.3-2.3-4.1-3.2-5.7-1.3c-1.5,1.7-2.8,3.8-2.4,4.1
			C157.9,117.1,158.7,116.6,159.3,115.3L159.3,115.3z M163.7,116.5c0.4-0.1,0.8-1,0.4-1c-0.3,0-2.4,1-2.4,1.1
			C161.8,116.9,163.2,116.6,163.7,116.5L163.7,116.5z M166.9,113.2c-1-1.7-1.3-1.1-1,2.1c0,0.1,0.3-0.1,0.8-0.5
			C167.4,114.1,167.4,113.9,166.9,113.2L166.9,113.2z M60.9,90c3.3-0.8,2.1-1.9-1.8-2.1c-3.1,0-6,1.5-4,1.9c0.4,0.1,1,0.1,1.3,0.3
			C57.6,90.4,58.8,90.3,60.9,90L60.9,90z M91.6,89c3.6-1.9-4.1-3.8-8.8-2.1c-2.1,0.8-2.3,1.1-0.5,1.7C85.4,89.8,89.5,90,91.6,89
			L91.6,89z M105.2,86.6c0.5-0.5,0.4-1.3-0.3-3.8c-3.3-11.6-2.9-10.9-4.9-10.1c-0.8,0.3-2.7,1-4.2,1.4c-5.9,1.5-6.5,1.8-5.1,2.5
			c0.5,0.3,0.4,0.3-1,0.1c-3.3-0.3-12.1,2.3-15.2,4.5c-1.1,0.9-4.1,1.8-4.1,1.4c0-0.1,0.4-0.3,0.9-0.4c3.5-0.9,3.2-2.1-0.4-1.7
			c-1.9,0.3-3.6,0.3-6,0c-1.8-0.1-4.5-0.4-6-0.8c-1.5-0.1-2.9-0.4-3.2-0.4C55,79,54.3,80.1,53.6,82c-0.8,1.9-0.4,2.3,1.8,1.5
			c6-1.9,7.3-1.8,13.8,1.7c2.9,1.5,6.8,1.1,8.1-1.1c0.1-0.1,0.9-0.8,1.8-1.3c8.3-4.7,16.9-4,23.5,2.3
			C104.6,87.2,104.6,87.2,105.2,86.6L105.2,86.6z M70.9,84.5c-1.1-0.3-5.1-1.7-6.4-2.3c-0.8-0.3-1.7-0.8-2.1-0.9
			c-0.8-0.1-0.9-0.3-0.3-0.3c0.4,0,1.5,0.3,2.7,0.8c1.1,0.4,1.9,0.8,2.1,0.8s1,0.3,1.9,0.8c2.8,1.1,4,0.9,8.3-2.1
			c1.7-1.1,4.2-1.9,5-1.8c0.3,0-0.1,0.3-1,0.8c-0.9,0.3-2.5,1.1-3.6,1.9C75.1,83.5,71.8,84.8,70.9,84.5L70.9,84.5z M77.3,71.9
			c-0.1-0.1-0.8-0.3-1.4-0.3c-0.8,0-1.3,0.1-1.3,0.3c0,0.2,0.5,0.3,1.4,0.3C76.9,72.3,77.4,72.1,77.3,71.9z M72.1,71.6
			c0.3-0.4-0.4-0.5-3.2-0.9c-1.7-0.1-2.5-0.1-2.5,0.1c0,0.4,1.1,0.5,3.5,0.8c0.9,0,1.7,0.1,1.7,0.1C71.8,71.9,72,71.8,72.1,71.6
			L72.1,71.6z M229.4,193.6c-0.8-0.3-1.5-0.8-2.1-0.9c-1.7-0.4-6.4-2.5-7.4-3.2c-1.3-1-2.1-2.4-4.9-7.5c-0.4-0.8-1-1.5-1.5-2.1
			c-1.1-1.1-0.9-1.7,2.3-3.5c1.4-0.9,2.9-1.8,3.6-2.1c0.5-0.4,1.4-1,1.8-1.5c1-1.1,2.1,0.1,3.2,3.6c1.3,4,6.4,8.1,10.1,8.1
			c2.3,0,6.8,3.3,5.1,4c-1.5,0.5-7.4,4.6-7.9,5.5C231.2,194.5,230.8,194.4,229.4,193.6L229.4,193.6z M234,190.5
			c4.6-3.3,4.6-3.3-1.4-4.5c-3.6-0.8-4.6-1.3-6.1-2.7c-1.4-1.5-1.8-1.3-1.7,0.9c0,0.5,0,0.8-0.3,0.4c-0.5-0.5-1-0.4-0.9,0
			c0.1,0.3,0.1,0.5,0,0.8c-0.1,0.2-0.1,0.9-0.1,1.5c0,1.1-0.1,1.3-0.9,1.7c-1.1,0.5-0.9,1.1,1.3,1.8c1,0.4,2.7,1.1,4,1.7
			C230.5,193.3,230,193.5,234,190.5L234,190.5z M220.6,187.9c0-0.1-0.3-0.4-0.8-0.8c-0.9-0.5-0.3-1,0.8-0.4c1.1,0.5,1.4,0,0.8-0.8
			c-1-1.1,0-3.1,1.8-3.1c1.5,0,1.9-1.1,1.1-3.2c-0.4-0.9-0.9-2.1-1-2.8c-1-2.9-1.7-3.5-3.2-2.3c-1,0.9-2.1,1.4-4.3,2.7
			c-2.1,1-2.1,1.4-1.1,2.8c0.9,1.1,1.9,2.8,3.2,5.1C218.9,187.2,220.6,188.7,220.6,187.9L220.6,187.9z M222.7,187.2
			c0-0.5-0.1-0.5-0.3-0.3c-0.1,0.1-0.3,0.5-0.1,0.8C222.6,188,222.7,187.9,222.7,187.2L222.7,187.2z M223,184.4
			c0.1-0.5-0.4-0.8-1.1-0.3c-0.3,0.1-0.3,0.4-0.1,0.5C222,185.2,222.9,185,223,184.4z M232.5,176c-5.6-5.6-11.1-7.9-18.7-7.7
			c-1.1,0-2.1-0.1-2.3-0.3c-0.1-0.1-0.5-0.4-0.9-0.4c-1.8,0-1-1.8,3.3-6.5c2.9-3.2,2.7-3.1,4.5-2.4c0.3,0.1,1.3,0.5,2.1,0.9
			c0.9,0.3,2.3,0.8,3.1,0.9c0.9,0.1,1.7,0.3,1.7,0.5s0.3,0.3,0.8,0.3c2.3,0,9.2,3.1,11.1,4.9c1.4,1.4,1.4,1.4-1.3,7.2
			c-0.5,1.3-1.1,2.5-1.1,2.7C235,177.1,233.7,177.2,232.5,176L232.5,176z M235.4,172.1c2.3-4.6,2.3-4.6,1.1-5.6
			c-1.1-1.1-2.4-1.7-5.9-2.9c-4.2-1.4-5.4-1.3-4.3,0.5c0.4,0.9,0,1.1-0.5,0.4c-0.8-1-1.3-0.1-0.8,0.9c0.5,1.1,0,2.4-1.1,2.4
			c-1.3,0-1,0.4,1.4,1.7c1.3,0.8,3.5,2.3,5.1,3.6c1.7,1.3,2.9,2.4,3.1,2.4C233.7,175.6,234.6,174,235.4,172.1L235.4,172.1z
			 M221.8,167.5c0-0.3-0.1-0.5-0.4-0.9c-0.3-0.3-0.3-0.4,0.4-0.3c1,0.3,1.7-0.4,1.4-1.5c-0.1-0.9,0.9-2.3,1.7-2.3
			c1.1,0,0-0.5-1.9-1.1c-1.3-0.3-2.9-0.9-3.6-1.3c-2.1-1-2.1-1-4,1.5c-0.9,1.3-2.1,2.7-2.5,3.2c-1.4,1.5-1.1,1.8,3.2,2.1
			c2.1,0.1,4.1,0.3,4.3,0.4C221.3,168,221.8,168,221.8,167.5L221.8,167.5z M224.8,166.4c0.1-0.3,0-0.3-0.3-0.3
			c-0.3,0.1-0.4,0.3-0.5,0.5c-0.1,0.3,0,0.3,0.3,0.3C224.5,166.9,224.8,166.6,224.8,166.4z"/>
	</g>
</g>
</svg>
